<svg width="512" height="512" viewBox="0 0 512 512" fill="none" xmlns="http://www.w3.org/2000/svg">
<path d="M86.2058 101.542C99.3796 101.542 110.099 90.822 110.099 77.6482C110.099 64.4745 99.3796 53.7549 86.2058 53.7549C73.0321 53.7549 62.3125 64.4745 62.3125 77.6482C62.3125 90.822 73.0321 101.542 86.2058 101.542V101.542ZM86.2058 67.4082C91.8532 67.4082 96.4458 72.0009 96.4458 77.6482C96.4458 83.2956 91.8532 87.8882 86.2058 87.8882C80.5585 87.8882 75.9658 83.2956 75.9658 77.6482C75.9658 72.0009 80.5602 67.4082 86.2058 67.4082Z" fill="white"/>
<path d="M396.818 193.701C396.818 206.875 407.538 217.595 420.712 217.595C433.885 217.595 444.605 206.875 444.605 193.701C444.605 180.528 433.885 169.808 420.712 169.808C407.538 169.808 396.818 180.528 396.818 193.701V193.701ZM420.712 183.461C426.359 183.461 430.952 188.054 430.952 193.701C430.952 199.349 426.359 203.941 420.712 203.941C415.064 203.941 410.472 199.349 410.472 193.701C410.472 188.054 415.066 183.461 420.712 183.461Z" fill="white"/>
<path d="M448.019 119.511C452.287 119.511 455.748 116.051 455.748 111.782C455.748 107.513 452.287 104.052 448.019 104.052C443.75 104.052 440.289 107.513 440.289 111.782C440.289 116.051 443.75 119.511 448.019 119.511Z" fill="white"/>
<path d="M120.339 146.818C124.608 146.818 128.068 143.357 128.068 139.088C128.068 134.819 124.608 131.359 120.339 131.359C116.07 131.359 112.609 134.819 112.609 139.088C112.609 143.357 116.07 146.818 120.339 146.818Z" fill="white"/>
<path d="M287.821 231.89C291.692 231.89 294.83 228.752 294.83 224.881C294.83 221.01 291.692 217.872 287.821 217.872C283.95 217.872 280.812 221.01 280.812 224.881C280.812 228.752 283.95 231.89 287.821 231.89Z" fill="white"/>
<path d="M217.733 231.89C221.604 231.89 224.742 228.752 224.742 224.881C224.742 221.01 221.604 217.872 217.733 217.872C213.862 217.872 210.724 221.01 210.724 224.881C210.724 228.752 213.862 231.89 217.733 231.89Z" fill="white"/>
<path d="M253.458 265.381C259.232 265.381 264.765 262.927 268.644 258.642C271.177 255.848 270.964 251.535 268.165 249.003C265.371 246.477 261.051 246.676 258.525 249.482C257.211 250.929 255.412 251.728 253.458 251.728C251.332 251.728 249.838 250.808 248.958 250.035C246.132 247.542 241.824 247.808 239.324 250.641C236.83 253.474 237.103 257.788 239.93 260.275C243.672 263.569 248.471 265.381 253.458 265.381V265.381Z" fill="white"/>
<path d="M372.625 88.1885C373.958 89.5214 375.706 90.1887 377.452 90.1887C379.198 90.1887 380.945 89.5214 382.278 88.1885L389.992 80.4744L397.707 88.1885C399.039 89.5214 400.787 90.1887 402.533 90.1887C404.279 90.1887 406.026 89.5214 407.359 88.1885C410.025 85.5227 410.025 81.2014 407.359 78.5356L399.645 70.8215L407.359 63.1073C410.025 60.4415 410.025 56.1203 407.359 53.4544C404.694 50.7886 400.372 50.7886 397.707 53.4544L389.992 61.1686L382.278 53.4544C379.612 50.7886 375.291 50.7886 372.625 53.4544C369.96 56.1203 369.96 60.4415 372.625 63.1073L380.339 70.8215L372.625 78.5356C369.96 81.2014 369.96 85.521 372.625 88.1885V88.1885Z" fill="white"/>
<path d="M58.598 231.548C59.9309 232.881 61.6785 233.549 63.4244 233.549C65.1704 233.549 66.918 232.881 68.2509 231.548L75.965 223.834L83.6792 231.548C85.0121 232.881 86.7597 233.549 88.5056 233.549C90.2515 233.549 91.9992 232.881 93.3321 231.548C95.9979 228.883 95.9979 224.561 93.3321 221.895L85.6179 214.181L93.3321 206.467C95.9979 203.801 95.9979 199.48 93.3321 196.814C90.6663 194.148 86.345 194.148 83.6792 196.814L75.965 204.528L68.2509 196.814C65.5851 194.148 61.2638 194.148 58.598 196.814C55.9322 199.48 55.9322 203.801 58.598 206.467L66.3121 214.181L58.598 221.895C55.9322 224.561 55.9322 228.881 58.598 231.548V231.548Z" fill="white"/>
<path d="M420.712 350.995C409.572 350.995 400.512 360.055 400.512 371.195C400.512 382.327 409.572 391.388 420.712 391.388C431.851 391.388 440.912 382.327 440.912 371.195C440.912 360.055 431.853 350.995 420.712 350.995V350.995ZM420.712 377.735C417.106 377.735 414.165 374.801 414.165 371.195C414.165 367.589 417.106 364.648 420.712 364.648C424.318 364.648 427.259 367.589 427.259 371.195C427.259 374.801 424.318 377.735 420.712 377.735Z" fill="white"/>
<path d="M445.286 338.429C436.626 331.928 435.899 321.429 435.06 309.275C433.746 290.328 432.112 266.755 394.253 262.021C383.467 260.683 372.758 262.118 362.687 265.945V223.227C362.687 223.065 362.607 222.928 362.595 222.77C364.327 219.983 365.523 216.933 365.914 213.767C366.587 208.294 365.351 202.989 362.687 198.528V175.846C362.687 168.223 361.847 160.609 360.275 153.16C362.25 151.347 363.902 149.079 365.208 146.354H365.214C374.096 127.795 358.226 101.504 328.076 81.263C330.188 75.9143 330.409 70.0809 328.482 64.6127C326.355 58.5933 322.022 53.76 316.269 51.0055C310.516 48.239 304.035 47.8925 298.002 50.0122C292.527 51.9458 288.119 55.7722 285.279 60.7659C250.61 49.961 220.177 54.0741 211.283 72.6324C210.324 74.636 209.792 76.6891 209.513 78.7456C195.35 85.8624 182.743 96.0751 173.023 108.679C164.882 119.24 158.923 132.086 155.317 146.859C152.497 158.399 151.064 167.265 151.064 173.218V198.286C151.064 198.335 151.091 198.378 151.093 198.427C148.753 202.31 147.5 206.855 147.671 211.634C147.802 215.427 149.024 219.129 151.064 222.464V343.654C151.064 343.849 151.159 344.013 151.174 344.204C134.222 357.419 123.757 378.018 123.757 400.374V456.527C123.757 460.3 126.81 463.353 130.584 463.353H376.344C380.117 463.353 383.17 460.3 383.17 456.527V425.095C386.532 425.518 389.935 425.807 393.41 425.807C423.564 425.807 455.536 406.293 463.237 383.2C466.351 373.842 468.166 355.589 445.286 338.429V338.429ZM340.365 279.455C327.511 290.807 318.433 306.292 314.204 323.041L304.071 318.435C304.064 318.432 304.056 318.432 304.047 318.428L287.59 310.948V298.414C313.699 285.926 333.549 262.677 341.603 234.648C344.178 234.754 346.63 234.336 349.03 233.528V272.942C346.05 274.9 343.132 277.014 340.365 279.455V279.455ZM328.552 395.889V449.702H178.365V344.561L198.845 335.253V408.743C198.845 412.517 201.898 415.57 205.672 415.57H301.245C305.018 415.57 308.072 412.517 308.072 408.743V335.254L311.864 336.978C311.673 339.277 311.485 341.579 311.485 343.89C311.485 362.863 318.027 380.3 328.891 394.202C328.748 394.754 328.552 395.29 328.552 395.889ZM221.544 324.937C226.362 337.951 238.791 347.302 253.458 347.302C268.125 347.302 280.555 337.951 285.373 324.937L294.418 329.047V401.915H212.498V329.047L221.544 324.937ZM161.305 211.149C161.165 207.148 163.305 203.508 166.813 201.689C172.972 200.475 199.273 193.536 206.653 162.435C214.273 170.783 225.546 179.016 239.82 186.476C272.72 203.675 319.947 215.649 348.868 202.996C351.442 205.196 352.802 208.582 352.368 212.103C352.022 214.876 350.102 217.597 347.235 219.39C344.354 221.184 341.915 221.464 338.828 220.37C336.988 219.696 334.941 219.89 333.235 220.836C331.521 221.79 330.301 223.435 329.881 225.35C323.234 255.87 300.675 280.803 271.001 290.417L267.987 291.403C259.493 294.149 250.827 294.25 242.927 291.704C212.734 281.991 190.02 256.623 183.64 225.504C183.248 223.59 182.053 221.937 180.36 220.957C179.314 220.356 178.133 220.051 176.954 220.051C176.22 220.051 175.488 220.17 174.781 220.404C172.067 221.331 169.707 221.437 166.388 219.184C163.358 217.143 161.413 214.062 161.305 211.149V211.149ZM238.738 304.701C243.904 306.362 249.286 307.195 254.745 307.195C260.539 307.195 266.412 306.261 272.199 304.387L273.94 303.819V313.168C273.94 324.461 264.753 333.648 253.46 333.648C242.167 333.648 232.98 324.461 232.98 313.168V302.437C234.902 303.188 236.759 304.065 238.738 304.701ZM302.539 62.8958C305.126 61.9896 307.899 62.1483 310.359 63.3157C314.465 65.2869 316.614 69.644 316.038 73.9243C313.245 72.3866 310.381 70.8898 307.411 69.4682C304.471 68.0602 301.537 66.7751 298.613 65.5719C299.716 64.413 300.989 63.4402 302.539 62.8958V62.8958ZM223.592 78.5289C226.665 72.1221 236.259 68.3947 249.712 68.3947C263.772 68.3947 282.052 72.4617 301.518 81.7818C339.611 100.035 359.164 127.355 352.892 140.462C351.64 143.082 350.232 143.848 349.146 144.229C341.2 146.949 322.353 137.622 302.353 127.756C297.439 125.329 292.287 122.783 286.899 120.202C281.612 117.67 276.372 115.236 271.291 112.876C249.245 102.629 226.457 92.0286 223.225 83.0225C222.692 81.5343 222.798 80.1878 223.592 78.5289V78.5289ZM168.579 150.101C171.733 137.196 176.86 126.061 183.833 117.014C191.651 106.872 201.649 98.5532 212.833 92.4348C220.713 104.399 240.814 113.761 265.533 125.254C270.573 127.594 275.766 130.007 281.006 132.521C286.339 135.074 291.445 137.595 296.313 139.994C317.272 150.347 333.453 158.334 345.932 158.334C346.383 158.334 346.799 158.259 347.241 158.237C348.322 164.048 349.033 169.929 349.033 175.846V188.406C347.977 188.438 346.931 188.704 345.98 189.22C323.2 201.586 277.56 190.787 246.147 174.374C224.394 163 210.194 149.707 209.094 139.674C208.687 136.001 204.62 133.374 201.1 133.666C197.427 133.967 194.66 137.126 194.833 140.8C196.734 180.34 169.76 187.261 164.713 188.208V173.22C164.712 168.496 166.086 160.288 168.579 150.101V150.101ZM164.712 233.484C167.007 234.264 169.349 234.668 171.798 234.668C178.938 260.76 196.266 282.655 219.378 295.945C219.375 296.037 219.325 296.115 219.325 296.207V310.948L202.866 318.428C202.859 318.432 202.852 318.432 202.845 318.435L168.712 333.949C168.707 333.95 168.704 333.955 168.698 333.957L164.92 335.674C164.848 335.708 164.785 335.754 164.713 335.787V233.484H164.712ZM137.405 400.376C137.405 380.076 147.968 361.528 164.712 351.312V449.702H137.405V400.376ZM369.512 449.702H342.205V407.738C350.22 414.177 359.448 419.159 369.512 422.234V449.702ZM450.278 378.882C444.472 396.295 417.365 412.155 393.405 412.155C355.765 412.155 325.138 381.529 325.138 343.888C325.138 323.362 334.211 303.102 349.405 289.695C360.152 280.207 372.998 275.168 386.145 275.168C388.278 275.168 390.418 275.301 392.559 275.567C419.271 278.907 420.179 292.04 421.439 310.214C422.372 323.755 423.432 339.101 437.099 349.348C449.319 358.514 453.753 368.456 450.278 378.882V378.882Z" fill="white"/>
<path d="M379.752 285.061C369.899 285.061 361.885 293.074 361.885 302.928C361.885 312.782 369.898 320.795 379.752 320.795C389.606 320.795 397.619 312.782 397.619 302.928C397.619 293.074 389.606 285.061 379.752 285.061ZM379.752 307.142C377.432 307.142 375.538 305.249 375.538 302.928C375.538 300.607 377.431 298.714 379.752 298.714C382.073 298.714 383.966 300.607 383.966 302.928C383.966 305.249 382.073 307.142 379.752 307.142Z" fill="white"/>
<path d="M366.899 340.475C366.899 330.622 358.886 322.608 349.032 322.608C339.178 322.608 331.165 330.621 331.165 340.475C331.165 350.329 339.178 358.342 349.032 358.342C358.886 358.342 366.899 350.329 366.899 340.475ZM349.032 344.689C346.713 344.689 344.818 342.796 344.818 340.475C344.818 338.154 346.711 336.261 349.032 336.261C351.353 336.261 353.246 338.154 353.246 340.475C353.246 342.796 351.353 344.689 349.032 344.689Z" fill="white"/>
<path d="M372.926 366.981C363.073 366.981 355.059 374.994 355.059 384.848C355.059 394.702 363.071 402.715 372.926 402.715C382.78 402.715 390.793 394.702 390.793 384.848C390.793 374.994 382.78 366.981 372.926 366.981ZM372.926 389.062C370.606 389.062 368.712 387.169 368.712 384.848C368.712 382.527 370.605 380.634 372.926 380.634C375.247 380.634 377.139 382.527 377.139 384.848C377.139 387.169 375.247 389.062 372.926 389.062Z" fill="white"/>
<path d="M104.792 295.335C103.526 294.083 102.239 292.809 100.986 291.495C100.985 291.494 100.983 291.494 100.983 291.492C100.983 291.492 100.981 291.49 100.981 291.489C95.7487 286.015 92.2619 281.028 92.2619 274.502C92.2619 265.829 87.7615 263.448 85.0752 262.803C74.429 260.11 61.9618 281.003 55.4816 293.636C51.5887 301.228 46.9414 311.856 46.9414 319.369C46.9414 332.616 54.2476 344.078 64.9621 350.285L61.0146 437.982C60.6937 445.068 63.1752 451.922 67.8208 456.776C71.8741 461.022 77.1938 463.355 82.7934 463.355C88.3929 463.355 93.7126 461.022 97.7659 456.776C102.413 451.922 104.893 445.07 104.572 437.982L100.625 350.285C111.339 344.078 118.645 332.616 118.645 319.369C118.645 309.055 111.284 301.763 104.792 295.335V295.335ZM79.3254 281.214C80.5866 286.901 83.3463 291.632 86.548 295.713C86.3722 295.841 86.1982 295.979 86.0241 296.1C85.2475 296.634 84.4761 297.066 83.7081 297.424C83.3702 297.581 83.0306 297.772 82.6927 297.895C81.6106 298.293 80.5354 298.564 79.4722 298.607C78.3202 298.602 77.1409 298.375 75.9684 298.006C75.9172 297.991 75.866 297.976 75.8148 297.96C73.8624 297.324 71.9782 296.233 70.2374 295.02C73.5176 289.207 76.7381 284.505 79.3254 281.214V281.214ZM90.9324 438.595C91.086 441.974 89.9784 445.169 87.8997 447.341C86.8723 448.422 85.1469 449.702 82.7934 449.702C80.4399 449.702 78.7127 448.422 77.687 447.341C75.6066 445.169 74.5007 441.974 74.6543 438.595L78.4277 354.78C79.875 354.958 81.3 355.222 82.7951 355.222C84.2901 355.222 85.7135 354.959 87.1624 354.78L90.9324 438.595ZM82.7917 341.569C70.5514 341.569 60.5913 331.609 60.5913 319.369C60.5913 317.442 61.5505 313.402 64.0388 307.502C67.034 309.422 70.0394 310.718 73.0807 311.484C73.3504 311.552 73.62 311.598 73.8897 311.658C75.3762 311.98 76.8746 312.158 78.3867 312.189C78.6154 312.196 78.8424 312.271 79.0728 312.271C79.38 312.271 79.6855 312.264 79.9995 312.25C81.7079 312.185 83.3822 311.876 85.0393 311.448C85.5104 311.327 85.9746 311.165 86.4405 311.014C87.6966 310.61 88.9356 310.098 90.161 309.484C90.5877 309.27 91.0178 309.081 91.441 308.84C92.9685 307.973 94.4789 306.994 95.9518 305.797C100.879 310.69 104.992 314.977 104.992 319.37C104.992 331.609 95.0319 341.569 82.7917 341.569V341.569Z" fill="white"/>
</svg>
