<svg width="177" height="177" viewBox="0 0 177 177" fill="none" xmlns="http://www.w3.org/2000/svg">
<g clip-path="url(#clip0)">
<path d="M34.1973 142.311H62.7963V33.647H34.1973V142.311ZM38.7803 40.518H58.2063V43.298H38.7803V40.518ZM38.7803 47.19H58.2063V49.97H38.7803V47.19ZM38.7803 132.669H58.2063V135.45H38.7803V132.669Z" fill="white"/>
<path d="M0 142.437H28.595V33.7759H0V142.437ZM4.578 40.6459H24.012V43.4259H4.578V40.6459ZM4.578 47.3189H24.012V50.0989H4.578V47.3189ZM4.578 132.8H24.012V135.58H4.578V132.8Z" fill="white"/>
<path d="M68.3945 33.647V142.31H96.9965V48.217V33.647H68.3945ZM92.4045 135.45H72.9715V132.669H92.4045V135.45ZM92.4045 49.971H72.9715V47.191H92.4045V49.971ZM92.4045 43.298H72.9715V40.518H92.4045V43.298Z" fill="white"/>
<path d="M121.752 33.9102L96.9971 48.2172L151.317 142.311L176.084 128.007L121.752 33.9102ZM104.389 51.8582L121.215 42.1422L122.611 44.5692L105.78 54.2792L104.389 51.8582ZM124.554 47.9182L125.946 50.3342L109.123 60.0442L124.554 47.9182ZM150.468 131.668L167.3 121.956L168.691 124.375L151.859 134.081L150.468 131.668Z" fill="white"/>
</g>
<defs>
<clipPath id="clip0">
<rect width="176.083" height="176.084" fill="white"/>
</clipPath>
</defs>
</svg>
