<svg width="10" height="13" viewBox="0 0 10 13" fill="none" xmlns="http://www.w3.org/2000/svg">
<path d="M8.43811 0.368216C8.56995 0.368216 8.69202 0.387381 8.80432 0.425712C8.91663 0.464043 9.01428 0.51579 9.09729 0.580952C9.1803 0.646114 9.24866 0.724693 9.30237 0.816686C9.35608 0.90868 9.38049 1.00451 9.37561 1.10417V11.4075C9.37561 11.511 9.3512 11.6068 9.30237 11.695C9.25354 11.7831 9.18762 11.8598 9.10461 11.925C9.02161 11.9901 8.92151 12.0438 8.80432 12.0859C8.68713 12.1281 8.56506 12.1473 8.43811 12.1434H0.93811C0.806274 12.1434 0.684204 12.1243 0.571899 12.0859C0.459595 12.0476 0.361938 11.9959 0.278931 11.9307C0.195923 11.8655 0.127563 11.787 0.0738525 11.695C0.0201416 11.603 -0.00427246 11.5072 0.000610352 11.4075V1.10417C0.000610352 1.00067 0.0250244 0.904847 0.0738525 0.816686C0.122681 0.728526 0.188599 0.651864 0.271606 0.586702C0.354614 0.521539 0.454712 0.467876 0.571899 0.425712C0.689087 0.383548 0.811157 0.364383 0.93811 0.368216H8.43811ZM8.43811 1.10417H0.93811V11.4075H8.43811V1.10417ZM3.75061 9.93559H5.62561V10.6715H3.75061V9.93559Z" fill="#248747"/>
</svg>
