<svg width="512" height="512" viewBox="0 0 512 512" fill="none" xmlns="http://www.w3.org/2000/svg">
<path d="M203.688 176H199.998C195.578 176 191.998 179.58 191.998 184C191.998 188.42 195.578 192 199.998 192H311.998C316.418 192 319.998 188.42 319.998 184C319.998 179.58 316.418 176 311.998 176H308.308L325.308 137.75C332.371 121.832 320.703 104 303.378 104H279.998V80H287.998C301.228 80 311.998 69.23 311.998 56C311.998 42.77 301.228 32 287.998 32H279.998V24C279.998 10.77 269.228 0 255.998 0C242.768 0 231.998 10.77 231.998 24V32H223.998C210.768 32 199.998 42.77 199.998 56C199.998 69.23 210.768 80 223.998 80H231.998V104H208.618C191.273 104 179.634 121.853 186.688 137.75L203.688 176Z" fill="white"/>
<path d="M295.998 256C309.228 256 319.998 245.23 319.998 232C319.998 218.77 309.228 208 295.998 208H215.998C202.768 208 191.998 218.77 191.998 232C191.998 245.23 202.768 256 215.998 256H295.998Z" fill="white"/>
<path d="M176.373 384H335.62C337.815 384 339.267 381.714 338.333 379.728C317.872 336.241 312.406 302.078 308.03 273.579C307.764 271.849 306.087 270.749 304.375 271.117C301.674 271.698 298.871 272.001 295.997 272.001C223.006 272.001 213.545 272.469 207.551 271.15C205.863 270.778 204.219 271.918 203.961 273.627C200.274 298.039 195.142 334.019 173.661 379.725C172.728 381.712 174.176 384 176.373 384V384Z" fill="white"/>
<path d="M356.684 290.488C353.704 310.184 349.251 329.663 343.344 348.804C343.147 349.443 343.166 350.13 343.405 350.754C345.39 355.959 347.506 361.114 349.771 366.218C350.252 367.302 351.333 367.999 352.519 367.999H458.832C460.906 367.999 462.342 365.949 461.653 363.992C453.243 340.116 447.106 315.525 443.313 290.486C443.089 289.009 441.829 287.92 440.335 287.934C427.561 288.053 372.445 288.056 359.663 287.935C358.168 287.922 356.907 289.011 356.684 290.488V290.488Z" fill="white"/>
<path d="M124.416 495.737C122.854 495.629 121.809 497.259 122.506 498.661C126.436 506.557 134.592 512 143.998 512H367.998C377.401 512 385.563 506.559 389.497 498.66C390.229 497.19 389.046 495.566 387.416 495.759C379.125 496.745 132.506 496.297 124.416 495.737Z" fill="white"/>
<path d="M509.788 434.48C509.263 433.884 509.354 434.013 495.998 424C486.014 416.507 480.041 404.605 479.998 392.134C479.983 387.663 476.469 384 471.998 384H358.278L358.283 384.01C358.606 384.638 359.171 385.096 359.839 385.326C369.366 388.614 375.998 397.677 375.998 408C375.998 422.545 381.921 435.958 391.598 445.66L393.059 447.121C393.622 447.684 394.385 448 395.18 448H503.997C511.061 448 514.599 439.509 509.788 434.48Z" fill="white"/>
<path d="M390.738 467.7C387.095 461.872 359.998 445.223 359.998 408C359.998 403.58 356.418 400 351.998 400H159.998C155.578 400 151.998 403.58 151.998 408C151.998 424.11 145.848 436.448 145.768 436.69C135.197 459.951 119.184 463.679 120.038 472.784C120.145 473.881 120.532 475.132 121.204 476.208C122.126 477.692 123.155 478.33 123.569 478.66C126.382 480.534 121.067 480 215.999 480C394.565 480 385.318 480.462 387.809 479.03C389.946 478.15 392.369 474.761 391.959 471.21C391.958 469.807 390.963 468 390.738 467.7V467.7Z" fill="white"/>
<path d="M359.998 272H439.998C453.228 272 463.998 261.23 463.998 248C463.998 234.77 453.228 224 439.998 224H428.809C445.086 214.193 455.998 196.35 455.998 176C455.998 145.12 430.878 120 399.998 120C369.118 120 343.998 145.12 343.998 176C343.998 196.35 354.91 214.193 371.187 224H359.998C346.768 224 335.998 234.77 335.998 248C335.998 261.23 346.768 272 359.998 272Z" fill="white"/>
<path d="M68.684 290.485C65.016 314.728 58.998 339.385 50.333 363.992C49.644 365.948 51.079 367.999 53.153 367.999H159.463C160.651 367.999 161.735 367.3 162.216 366.214C164.474 361.118 166.596 355.96 168.581 350.766C168.82 350.14 168.84 349.452 168.643 348.811C162.764 329.732 158.307 310.254 155.314 290.488C155.09 289.011 153.83 287.922 152.336 287.936C139.555 288.057 84.44 288.054 71.664 287.935C70.168 287.921 68.907 289.008 68.684 290.485V290.485Z" fill="white"/>
<path d="M153.718 384H39.9981C35.5321 384 32.011 387.655 31.998 392.12C31.96 404.687 25.977 416.506 15.998 424C2.06605 434.446 2.98705 433.723 2.46805 434.22C1.65105 434.946 0.760049 436.255 0.328049 437.731C-1.19495 443.043 2.79705 448 7.99805 448H116.807C117.608 448 118.381 447.679 118.943 447.108C126.893 439.029 129.227 434.781 131.928 428.429C137.865 414.102 134.517 407.946 137.378 399.999C139.805 393.147 145.265 387.709 152.147 385.329C152.821 385.096 153.391 384.634 153.718 384V384Z" fill="white"/>
<path d="M102.684 464C25.6771 464.005 9.66607 464.234 4.49208 463.744C2.90208 463.594 1.79408 465.232 2.50608 466.662C6.43708 474.557 14.5931 480 23.9981 480H102.698C103.976 480 104.946 478.812 104.648 477.569C103.764 473.886 103.777 470.102 104.623 466.505C104.922 465.23 103.994 464 102.684 464V464Z" fill="white"/>
<path d="M71.998 272H151.998C165.228 272 175.998 261.23 175.998 248C175.998 234.77 165.228 224 151.998 224H140.809C157.086 214.193 167.998 196.35 167.998 176C167.998 145.12 142.878 120 111.998 120C81.118 120 55.998 145.12 55.998 176C55.998 196.35 66.91 214.193 83.187 224H71.998C58.768 224 47.998 234.77 47.998 248C47.998 261.23 58.768 272 71.998 272V272Z" fill="white"/>
<path d="M409.274 464C486.281 464.005 502.292 464.234 507.466 463.744C509.056 463.594 510.164 465.232 509.452 466.662C505.522 474.557 497.366 480 487.96 480H409.26C407.982 480 407.012 478.812 407.31 477.569C408.194 473.886 408.181 470.102 407.335 466.505C407.036 465.23 407.964 464 409.274 464V464Z" fill="white"/>
</svg>
