<svg width="100" height="100" viewBox="0 0 100 100" fill="none" xmlns="http://www.w3.org/2000/svg">
<path d="M96.4021 84.0907H89.3748V38.368C89.3748 35.3531 86.9209 32.8992 83.9061 32.8992H77.5975L74.9522 31.1875C73.7576 30.4149 73.2623 28.8899 73.774 27.561L74.9295 24.5641C75.492 23.1063 75.2795 21.482 74.3615 20.2188C73.4428 18.9547 71.9654 18.2602 70.4037 18.3344L67.1967 18.5078C65.7897 18.5922 64.4787 17.643 64.1115 16.2664L63.285 13.1625C62.8826 11.6524 61.7561 10.4633 60.2709 9.98126C58.785 9.49923 57.1732 9.79845 55.9615 10.7828L53.4693 12.8086C52.3631 13.7055 50.76 13.7055 49.6553 12.8086L47.1623 10.7828C45.9498 9.79767 44.3373 9.49845 42.8529 9.98126C41.3678 10.4633 40.2404 11.6531 39.8396 13.1617L39.0115 16.2672C38.6459 17.6422 37.3545 18.5867 35.9271 18.5078L32.7201 18.3344C31.1529 18.2617 29.6795 18.9547 28.7623 20.2188C27.8443 21.482 27.6326 23.1063 28.1943 24.5641L29.3498 27.5625C29.8615 28.8899 29.3662 30.4149 28.1717 31.1883L25.5264 32.9H19.2178C16.2029 32.9 13.749 35.3539 13.749 38.3688V84.0915H6.72168C6.28965 84.0915 5.94043 84.4407 5.94043 84.8727V87.9461C5.94043 90.9383 8.37402 93.3719 11.3662 93.3719H91.7553C94.7482 93.3719 97.1826 90.9383 97.1826 87.9461V84.8727C97.1834 84.4399 96.8342 84.0907 96.4021 84.0907Z" fill="white"/>
<path d="M81.9039 30.3784H75.4353C77.5931 31.9069 77.5561 35.1686 75.3143 36.6289L72.6542 38.3613C71.163 39.3322 70.5527 41.2229 71.1915 42.891L72.332 45.8658C73.3115 48.4218 71.3464 51.1438 68.6284 50.9964L67.8386 50.9538L73.8055 63.8301C73.9943 64.238 73.6382 64.687 73.2013 64.5916L63.4892 62.4745L58.8585 71.3221C58.6504 71.7199 58.0794 71.706 57.8906 71.2988L50.7524 55.8944C50.2561 55.7921 49.7467 55.7921 49.2504 55.8944L42.1122 71.2988C41.9234 71.7067 41.3523 71.7207 41.1443 71.3221L36.5136 62.4745L26.8015 64.5916C26.3645 64.687 26.0085 64.238 26.1973 63.8301L32.1635 50.9538L31.3736 50.9964C28.6556 51.1438 26.6897 48.4218 27.67 45.8658L28.8105 42.891C29.4501 41.2229 28.839 39.3322 27.3478 38.3613L24.6877 36.6289C22.4452 35.1686 22.4089 31.9069 24.5667 30.3784H18.0981C15.5443 30.3784 13.4744 32.4614 13.4744 35.0313V81.1933H86.5276V35.0313C86.5276 32.4621 84.4578 30.3784 81.9039 30.3784Z" fill="white"/>
<path d="M79.5704 37.2322H74.3888L72.6533 38.3621C71.1622 39.333 70.5518 41.2237 71.1907 42.8918L72.3312 45.8666C73.3107 48.4226 71.3456 51.1446 68.6276 50.9972L67.8377 50.9546L73.8046 63.8309C73.9934 64.2388 73.6374 64.6878 73.2005 64.5924L63.4883 62.4753L58.8577 71.3229C58.6496 71.7208 58.0786 71.7068 57.8898 71.2997L50.7515 55.8953C50.2552 55.7929 49.7459 55.7929 49.2496 55.8953L42.1113 71.2997C41.9225 71.7076 41.3515 71.7215 41.1434 71.3229L36.5128 62.4753L26.8006 64.5924C26.3637 64.6878 26.0077 64.2388 26.1965 63.8309L32.1626 50.9546L31.3727 50.9972C28.6547 51.1446 26.6889 48.4226 27.6691 45.8666L28.8096 42.8918C29.4493 41.2237 28.8382 39.333 27.347 38.3621L25.6116 37.2322H20.4299C19.5784 37.2322 18.8887 37.9263 18.8887 38.7832V81.1942H81.1124V38.7832C81.1116 37.9263 80.4219 37.2322 79.5704 37.2322Z" fill="white"/>
<path d="M18.8887 78.8669H81.1124V81.1934H18.8887V78.8669Z" fill="white"/>
<path d="M5.77051 81.1934V84.2434C5.77051 86.7893 7.8219 88.8537 10.3518 88.8537H89.6471C92.1779 88.8537 94.2292 86.7893 94.2292 84.2434V81.1934H5.77051Z" fill="white"/>
<path d="M5.77051 81.1934V84.2434C5.77051 86.7893 7.8219 88.8537 10.3518 88.8537H89.6471C92.1779 88.8537 94.2292 86.7893 94.2292 84.2434V81.1934H5.77051Z" fill="white"/>
<path d="M35.3191 81.1934V82.7374C35.3191 84.0262 36.3571 85.0708 37.6379 85.0708H62.3617C63.6424 85.0708 64.6812 84.0255 64.6812 82.7374V81.1934H35.3191Z" fill="white"/>
<path d="M67.8384 50.9545L65.4642 50.8258C63.6902 50.7296 62.0919 51.8975 61.6349 53.6253L60.8196 56.7063C60.1191 59.3531 56.9396 60.393 54.8265 58.666L52.3667 56.6552C51.8843 56.2612 51.3279 56.0131 50.7515 55.8944L57.8897 71.298C58.0785 71.7059 58.6496 71.7199 58.8576 71.3213L63.4883 62.4737L73.2004 64.5916C73.6374 64.6869 73.9934 64.2379 73.8046 63.83L67.8384 50.9545Z" fill="white"/>
<path d="M47.6342 56.6552L45.1744 58.666C43.0614 60.393 39.8818 59.3531 39.1813 56.7063L38.366 53.6253C37.909 51.8975 36.3107 50.7296 34.5368 50.8258L32.1625 50.9545L26.1963 63.8308C26.0075 64.2387 26.3636 64.6877 26.8005 64.5923L36.5126 62.4745L41.1433 71.3221C41.3513 71.7199 41.9224 71.7059 42.1112 71.2988L49.2494 55.8952C48.673 56.0131 48.1166 56.2612 47.6342 56.6552Z" fill="white"/>
<path d="M52.3673 10.2621L54.8272 8.25124C56.9402 6.52421 60.1198 7.56337 60.8203 10.2109L61.6356 13.2927C62.0926 15.0205 63.6908 16.1884 65.4648 16.0922L68.629 15.9201C71.347 15.772 73.3128 18.4947 72.3326 21.0507L71.1921 24.0263C70.5524 25.6944 71.1635 27.5851 72.6547 28.556L75.3149 30.2884C77.6005 31.7766 77.6005 35.1415 75.3149 36.6296L72.6547 38.3621C71.1635 39.333 70.5532 41.2236 71.1921 42.8917L72.3326 45.8673C73.312 48.4233 71.347 51.1453 68.629 50.998L65.4648 50.8258C63.6908 50.7296 62.0926 51.8975 61.6356 53.6253L60.8203 56.7071C60.1198 59.3539 56.9402 60.3938 54.8272 58.6668L52.3673 56.656C50.9887 55.5284 49.0128 55.5284 47.6342 56.656L45.1744 58.6668C43.0613 60.3938 39.8818 59.3547 39.1813 56.7071L38.3659 53.6253C37.909 51.8975 36.3107 50.7296 34.5367 50.8258L31.3726 50.998C28.6546 51.1461 26.6887 48.4233 27.669 45.8673L28.8095 42.8917C29.4491 41.2236 28.838 39.333 27.3468 38.3621L24.6867 36.6296C22.401 35.1415 22.401 31.7766 24.6867 30.2884L27.3468 28.556C28.838 27.5851 29.4483 25.6944 28.8095 24.0263L27.669 21.0507C26.6895 18.4947 28.6546 15.7727 31.3726 15.9201L34.5367 16.0922C36.3107 16.1884 37.909 15.0205 38.3659 13.2927L39.1813 10.2109C39.8818 7.56415 43.0613 6.52421 45.1744 8.25124L47.6342 10.2621C49.0128 11.3897 50.9887 11.3897 52.3673 10.2621Z" fill="white"/>
<path d="M50.0006 51.295C59.7895 51.295 67.7249 43.3094 67.7249 33.4587C67.7249 23.6079 59.7895 15.6223 50.0006 15.6223C40.2118 15.6223 32.2764 23.6079 32.2764 33.4587C32.2764 43.3094 40.2118 51.295 50.0006 51.295Z" fill="white"/>
<path d="M46.7384 42.2876C46.7176 42.2876 46.6976 42.2868 46.6768 42.2868C46.031 42.269 45.4237 41.9728 45.0107 41.4734L39.3867 34.6824C38.5914 33.7215 38.7201 32.2946 39.6749 31.4943C40.6289 30.694 42.0477 30.8235 42.8429 31.7836L46.8317 36.6009L57.2389 25.3516C58.0843 24.4366 59.5084 24.3846 60.4177 25.2376C61.327 26.0899 61.3779 27.5215 60.531 28.4365L48.3837 41.5656C47.9591 42.0271 47.3619 42.2876 46.7384 42.2876Z" fill="white"/>
<path d="M18.8885 73.4276C19.3147 73.4276 19.6592 73.081 19.6592 72.6521V65.0926C19.6592 64.6638 19.3147 64.3171 18.8885 64.3171C18.4624 64.3171 18.1179 64.6638 18.1179 65.0926V72.6521C18.1179 73.0802 18.4624 73.4276 18.8885 73.4276Z" fill="#262262"/>
<path d="M94.2301 80.4179H87.2992V35.0321C87.2992 32.0395 84.8787 29.6037 81.9048 29.6037H75.6821L73.0728 27.9046C71.8945 27.1376 71.4051 25.6238 71.9107 24.3047L73.0504 21.3299C73.6053 19.8829 73.3957 18.2706 72.4902 17.0166C71.5847 15.7619 70.1251 15.0678 68.5862 15.1462L65.4228 15.3183C64.0241 15.3873 62.7411 14.4598 62.3796 13.0942L61.5643 10.0124C61.1674 8.51414 60.057 7.33384 58.592 6.85459C57.1255 6.37533 55.5365 6.67312 54.3397 7.65024L51.8807 9.6611C50.7918 10.5514 49.2105 10.5514 48.1201 9.6611L45.661 7.65024C44.4658 6.67235 42.8783 6.37688 41.4103 6.85381C39.9453 7.33307 38.8333 8.51414 38.4365 10.0124L37.6211 13.0942C37.2605 14.4598 35.9951 15.4091 34.5787 15.3183L31.4146 15.1462C29.8849 15.0795 28.4168 15.7619 27.5121 17.0166C26.6059 18.2706 26.397 19.8829 26.9511 21.3299L28.0909 24.3055C28.5956 25.6238 28.1071 27.1376 26.928 27.9053L24.3187 29.6045H18.0967C15.1229 29.6045 12.7024 32.0403 12.7024 35.0329V80.4186H5.77062C5.34447 80.4186 5 80.7653 5 81.1941V84.2449C5 87.2143 7.40048 89.6299 10.352 89.6299H89.6473C92.5987 89.6299 95 87.2143 95 84.2449V81.1941C95.0008 80.7645 94.6555 80.4179 94.2301 80.4179ZM85.7579 35.0321V80.4179H81.8856V38.7832C81.8856 37.5005 80.8483 36.4567 79.5737 36.4567H76.6746C77.3898 35.6378 77.8005 34.5823 77.8005 33.4594C77.8005 32.632 77.5747 31.8425 77.1725 31.1547H81.9056C84.0287 31.1547 85.7579 32.8941 85.7579 35.0321ZM27.7649 29.2066C29.5527 28.0426 30.2948 25.7464 29.5281 23.7472L28.3883 20.7708C28.0231 19.8177 28.161 18.7538 28.7575 17.9271C29.3547 17.1012 30.3095 16.6444 31.3313 16.6948L34.4955 16.867C36.607 16.9639 38.5628 15.5634 39.1107 13.4913L39.9253 10.4102C40.1873 9.42225 40.9202 8.64365 41.8865 8.32725C42.8521 8.01162 43.9002 8.20782 44.6885 8.85303L47.1475 10.8639C48.8013 12.2156 51.201 12.214 52.8524 10.8639L55.3115 8.85303C56.0998 8.20705 57.1479 8.01007 58.1142 8.32802C59.0806 8.64365 59.8127 9.42147 60.0739 10.4094L60.89 13.492C61.4379 15.5618 63.3668 16.9585 65.5053 16.867L68.6687 16.6948C69.6905 16.6289 70.6453 17.0996 71.2433 17.9279C71.8398 18.7538 71.9777 19.8177 71.6124 20.7716L70.4727 23.7464C69.7051 25.7464 70.4465 28.0426 72.2351 29.2066L74.8953 30.9391C75.7476 31.4943 76.2577 32.4366 76.2577 33.4587C76.2577 34.48 75.7484 35.4222 74.8953 35.9775L72.2351 37.7099C70.4473 38.8747 69.7059 41.1709 70.4727 43.1694L71.6124 46.1457C71.9777 47.0988 71.8398 48.1628 71.2433 48.9887C70.6461 49.8154 69.6905 50.2721 68.6687 50.2217L65.5053 50.0496C63.3953 49.9526 61.4387 51.3539 60.8892 53.4253L60.0739 56.5071C59.8127 57.4943 59.0806 58.2721 58.115 58.5893C57.1479 58.9041 56.1014 58.7087 55.3115 58.0643L52.8524 56.0527C52.0263 55.3772 51.013 55.0391 50.0004 55.0391C48.9878 55.0391 47.9737 55.3772 47.1475 56.0527L44.6885 58.0643C43.9009 58.7079 42.8521 58.9041 41.8865 58.5893C40.9202 58.2737 40.1873 57.4951 39.9261 56.5071L39.1107 53.4253C38.5628 51.3532 36.597 49.9394 34.4955 50.0496L31.3313 50.2217C30.3095 50.276 29.3555 49.8169 28.7575 48.9895C28.161 48.1628 28.0231 47.0988 28.3883 46.1449L29.5281 43.1694C30.2941 41.1709 29.5527 38.8747 27.7649 37.7099L25.1047 35.9775C24.2524 35.4222 23.743 34.48 23.743 33.4587C23.743 32.4366 24.2516 31.4943 25.1047 30.9391L27.7649 29.2066ZM32.666 51.7037L34.5787 51.5998C35.9797 51.5261 37.2605 52.4582 37.6211 53.8239L38.4372 56.9065C38.8341 58.4047 39.9453 59.585 41.4103 60.0643C42.8768 60.5435 44.465 60.2457 45.661 59.2686L47.5529 57.7207L41.6083 70.5489L37.1934 62.1131C37.0578 61.8549 36.7927 61.699 36.5114 61.699C36.4575 61.699 36.4028 61.7052 36.3481 61.7161L27.0891 63.7355L32.666 51.7037ZM67.3339 51.7037L72.9102 63.7362L63.6511 61.7161C63.3113 61.6455 62.9676 61.8053 62.8058 62.1131L58.3924 70.5482L52.4486 57.7223L54.3405 59.2686C55.1597 59.9379 56.1638 60.2884 57.1864 60.2884C57.6557 60.2884 58.1304 60.2139 58.5913 60.0635C60.0562 59.5842 61.1674 58.4032 61.5635 56.9057L62.3781 53.8247C62.7403 52.459 64.0126 51.5152 65.422 51.5998L67.3339 51.7037ZM14.2436 35.0321C14.2436 32.8941 15.9721 31.1547 18.0967 31.1547H22.8291C22.4276 31.8425 22.2018 32.6312 22.2018 33.4594C22.2018 34.5823 22.6118 35.6378 23.3269 36.4567H20.4317C19.1571 36.4567 18.1198 37.5005 18.1198 38.7832V61.5369C18.1198 61.9658 18.4643 62.3124 18.8904 62.3124C19.3166 62.3124 19.6611 61.9658 19.6611 61.5369V38.7832C19.6611 38.3551 20.0063 38.0077 20.4317 38.0077H25.3837L26.928 39.0135C28.1063 39.7805 28.5956 41.2942 28.0909 42.6134L26.9511 45.5881C26.3963 47.0352 26.6059 48.6475 27.5121 49.9014C28.3236 51.0259 29.5782 51.6882 30.9383 51.7649L25.4993 63.5028C25.2874 63.9604 25.3505 64.4885 25.6626 64.8832C25.9747 65.2771 26.4703 65.4571 26.965 65.3508L36.1046 63.3578L40.4616 71.685C40.6905 72.1209 41.1329 72.3884 41.6207 72.3884H41.6546C42.1555 72.3752 42.5993 72.0829 42.8105 71.6269L49.7692 56.6087C49.9241 56.597 50.0774 56.597 50.2323 56.6087L57.1918 71.6261C57.403 72.0836 57.8468 72.376 58.3477 72.3884H58.3809C58.8694 72.3884 59.311 72.1209 59.5399 71.6843L63.897 63.3578L73.0381 65.3508C73.5243 65.4586 74.0276 65.2779 74.3397 64.8824C74.6518 64.4885 74.7142 63.9596 74.503 63.5028L69.0632 51.7649C70.4234 51.6889 71.6795 51.0259 72.4909 49.9014C73.3964 48.6475 73.6053 47.0352 73.0512 45.5881L71.9114 42.6118C71.4067 41.2942 71.8953 39.7812 73.0735 39.0127L74.6179 38.0069H79.5745C79.9999 38.0069 80.3451 38.3543 80.3451 38.7824V80.4171H19.6611V76.3993C19.6611 75.9704 19.3166 75.6238 18.8904 75.6238C18.4643 75.6238 18.1198 75.9704 18.1198 76.3993V80.4171H14.2436V35.0321ZM93.4595 84.2441C93.4595 86.3589 91.7495 88.0782 89.648 88.0782H10.352C8.25048 88.0782 6.54124 86.3581 6.54124 84.2441V81.9688H93.4595V84.2441Z" fill="#262262"/>
<path d="M50.0003 52.0705C60.1979 52.0705 68.4952 43.7207 68.4952 33.4586C68.4952 23.1965 60.1979 14.8468 50.0003 14.8468C39.8026 14.8468 31.5054 23.1965 31.5054 33.4586C31.5054 43.7207 39.8026 52.0705 50.0003 52.0705ZM50.0003 16.3978C59.3487 16.3978 66.9539 24.0511 66.9539 33.4586C66.9539 42.8661 59.3487 50.5195 50.0003 50.5195C40.6519 50.5195 33.0466 42.8661 33.0466 33.4586C33.0466 24.0511 40.6519 16.3978 50.0003 16.3978Z" fill="#262262"/>
<path d="M44.4186 41.9697C44.975 42.6397 45.7903 43.0383 46.6488 43.0608C46.6588 43.0616 46.7289 43.0624 46.7389 43.0624C47.5743 43.0624 48.3796 42.7095 48.9483 42.0945L61.0956 28.9647C62.2307 27.7386 62.1629 25.8123 60.9446 24.67C60.3535 24.1163 59.5883 23.8278 58.7776 23.8565C57.9715 23.8852 57.2248 24.228 56.6753 24.822L46.8645 35.4284L43.4353 31.2865C42.9182 30.663 42.1915 30.2791 41.3885 30.2055C40.5801 30.1318 39.8003 30.3784 39.1822 30.898C37.903 31.9697 37.7288 33.8898 38.7946 35.1795L44.4186 41.9697ZM40.1678 32.0891C40.436 31.8642 40.7666 31.744 41.1118 31.744C41.1573 31.744 41.2028 31.7464 41.2482 31.751C41.642 31.7867 41.9981 31.9744 42.2508 32.2807L46.2403 37.098C46.3829 37.2687 46.5902 37.371 46.8114 37.3764C47.0279 37.3679 47.246 37.2927 47.3963 37.1298L57.8035 25.8805C58.0732 25.5897 58.4385 25.4214 58.8331 25.4075C59.2245 25.4121 59.6045 25.5347 59.8942 25.8061C60.4907 26.366 60.5238 27.309 59.969 27.9092L47.8209 41.0375C47.5419 41.3392 47.1474 41.5114 46.7389 41.5114L46.6973 41.5106C46.2735 41.499 45.8743 41.3043 45.6023 40.9763L39.9783 34.1861C39.4566 33.5548 39.5413 32.6149 40.1678 32.0891Z" fill="#262262"/>
</svg>
