<svg width="512" height="512" viewBox="0 0 512 512" fill="none" xmlns="http://www.w3.org/2000/svg">
<path d="M117.733 156.221H115.029V147.457C115.029 143.314 111.671 139.957 107.529 139.957C103.387 139.957 100.029 143.314 100.029 147.457V160.721C100.029 166.511 104.739 171.221 110.529 171.221H117.733C121.875 171.221 125.233 167.864 125.233 163.721C125.233 159.578 121.875 156.221 117.733 156.221Z" fill="white"/>
<path d="M88.0358 143.588C78.0158 133.568 61.7118 133.57 51.6928 143.588C48.7638 146.517 48.7638 151.266 51.6928 154.194C54.6218 157.123 59.3708 157.124 62.2998 154.195C66.4678 150.023 73.2568 150.022 77.4298 154.195C78.8938 155.659 80.8128 156.391 82.7328 156.391C84.6528 156.391 86.5718 155.659 88.0368 154.194C90.9658 151.265 90.9648 146.516 88.0358 143.588Z" fill="white"/>
<path d="M480.351 212.103H469.351C476.955 201.882 482.355 189.956 484.813 177.005C499.95 176.138 512 163.624 512 148.36C512 133.604 500.741 121.419 486.316 119.839V91.5612V80.9842C486.316 80.3632 486.24 79.7592 486.098 79.1822C483.233 40.9842 451.31 11.2642 412.823 11.2642H385.914C348.109 11.2642 316.312 40.3372 312.77 77.7712C312.541 78.4962 312.421 91.5612 312.421 91.5612V98.6482C300.277 92.0172 286.377 88.2382 271.633 88.2382H239.924C225.393 88.2382 211.639 91.9602 199.576 98.4902C199.576 98.4902 199.718 79.7612 199.576 79.1852C196.71 40.9872 164.571 11.2642 126.083 11.2642H99.176C61.371 11.2642 29.575 40.3352 26.032 77.7692C25.803 78.4942 25.683 79.2562 25.683 80.0312V119.839C11.26 121.417 0 133.603 0 148.36C0 163.624 12.05 176.139 27.188 177.006C29.646 189.952 35.028 201.885 42.628 212.104H31.649C17.669 212.104 6.295 223.478 6.295 237.459V382.946C6.295 389.839 11.902 395.446 18.795 395.446H75.236L104.398 413.849C106.706 415.305 109.629 416.107 112.629 416.107C115.629 416.107 118.553 415.305 120.86 413.849L149.52 395.763V473.669C149.52 480.562 155.127 486.169 162.02 486.169H228.12L247.625 498.479C249.932 499.934 252.855 500.736 255.855 500.736C258.854 500.736 261.777 499.934 264.086 498.478L283.59 486.169H349.692C356.585 486.169 362.192 480.562 362.192 473.669V395.582L391.137 413.849C393.445 415.305 396.368 416.107 399.369 416.107C402.37 416.107 405.293 415.305 407.6 413.849L436.763 395.446H493.206C500.099 395.446 505.706 389.839 505.706 382.946V284.184C505.706 280.042 502.348 276.684 498.206 276.684C494.064 276.684 490.706 280.042 490.706 284.184V293.164H484.53V268.151C484.53 262.11 480.264 257.554 474.608 257.554C472.684 257.554 470.785 258.083 468.966 259.124L400.07 298.538C399.969 298.567 399.717 298.621 399.369 298.621C399.022 298.621 398.769 298.567 398.668 298.538L356.886 274.635C356.883 271.945 356.879 268.843 356.875 265.419C361.839 267.928 367.44 269.351 373.372 269.351C383.316 269.351 392.59 265.393 399.371 258.588C406.151 265.393 415.425 269.351 425.37 269.351C445.633 269.351 462.119 252.866 462.119 232.602C462.119 230.731 461.962 228.898 461.691 227.102H480.353C486.063 227.102 490.708 231.748 490.708 237.457V248.18C490.708 252.323 494.066 255.68 498.208 255.68C502.35 255.68 505.708 252.323 505.708 248.18V237.457C505.705 223.477 494.331 212.103 480.351 212.103ZM486.316 161.018V135.038C492.43 136.464 497 141.889 497 148.359C497 154.833 492.427 160.258 486.308 161.68C486.31 161.46 486.316 161.24 486.316 161.018ZM15 148.36C15 141.888 19.569 136.465 25.684 135.039V161.019C25.684 161.241 25.691 161.461 25.692 161.682C19.574 160.259 15 154.833 15 148.36ZM490.706 380.446H460.531L476.802 370.179C481.28 367.355 484.53 361.462 484.53 356.167V345.68H490.706V380.446ZM490.705 308.165V330.68H469.485V308.165H490.705ZM406.868 311.898C407.056 311.802 407.245 311.714 407.432 311.608L469.529 276.083V293.164H466.985C460.092 293.164 454.485 298.771 454.485 305.664V333.179C454.485 340.072 460.092 345.679 466.985 345.679H469.529V356.09C469.458 356.496 469.04 357.255 468.735 357.531L406.868 396.572V311.898ZM327.422 80.5632C329.578 50.1152 355.365 26.2642 385.915 26.2642H412.824C443.822 26.2642 469.47 50.4862 471.213 81.4062C471.23 81.7092 471.265 82.0072 471.317 82.2982V111.889C446.95 107.905 435.699 85.4272 435.199 84.4032C433.964 81.8252 431.37 80.1742 428.511 80.1442C428.486 80.1442 428.46 80.1442 428.435 80.1442C425.606 80.1442 423.015 81.7372 421.739 84.2672C412.571 102.443 369.208 108.919 331.682 108.919C330.129 108.919 328.702 108.907 327.422 108.89C327.422 108.889 327.395 80.9512 327.422 80.5632ZM239.925 103.237H271.634V103.238C308.804 103.238 339.57 132.233 341.762 169.283L341.874 207.023C311.39 202.934 297.408 174.925 296.793 173.662C295.558 171.084 292.964 169.432 290.105 169.403C290.08 169.403 290.054 169.403 290.029 169.403C287.2 169.403 284.609 170.996 283.333 173.526C273.927 192.175 233.883 203.31 176.215 203.31C173.836 203.31 171.706 203.288 169.882 203.255V168.206C172.6 131.755 203.316 103.237 239.925 103.237ZM341.898 222.125V282.918H329.578C335.284 271.787 338.522 259.213 338.522 245.896V221.684C339.631 221.853 340.752 222.006 341.898 222.125ZM237.036 310.23V279.753H274.677V310.23C268.698 311.947 262.388 312.886 255.857 312.886C249.325 312.886 243.015 311.947 237.036 310.23ZM248.958 327.6C245.137 334.627 237.868 338.979 229.858 338.979C217.866 338.979 208.11 329.222 208.11 317.23C208.11 315.808 208.257 314.42 208.519 313.074C220.165 321.171 234.002 326.369 248.958 327.6ZM303.194 313.074C303.456 314.421 303.603 315.808 303.603 317.23C303.603 329.222 293.847 338.979 281.854 338.979C273.844 338.979 266.575 334.627 262.753 327.6C277.71 326.369 291.548 321.172 303.194 313.074ZM289.677 303.88V279.179C289.677 271.225 283.205 264.753 275.251 264.753H236.462C228.507 264.753 222.036 271.225 222.036 279.179V303.88C201.825 292.28 188.191 270.642 188.191 245.895V218.139C221.912 217.188 268.429 211.718 289.492 190.25C295.752 198.909 306.872 210.967 323.521 217.616V245.894C323.522 270.642 309.888 292.281 289.677 303.88ZM182.135 282.917H169.882V218.258C170.9 218.275 172.009 218.288 173.191 218.298V245.895C173.191 259.212 176.429 271.787 182.135 282.917ZM40.684 81.7012C40.768 81.3322 40.825 80.9522 40.852 80.5632C43.008 50.1152 68.627 26.2642 99.176 26.2642H126.085C157.083 26.2642 182.731 50.4862 184.475 81.4062C184.492 81.7082 184.527 82.0052 184.578 82.2952V108.785C183.615 109.609 182.669 110.453 181.744 111.319C159.342 106.142 148.94 85.3852 148.46 84.4022C147.225 81.8242 144.631 80.1732 141.772 80.1432C141.747 80.1432 141.721 80.1432 141.696 80.1432C138.867 80.1432 136.276 81.7362 135 84.2662C125.834 102.442 82.469 108.918 44.944 108.918C43.391 108.918 41.964 108.906 40.684 108.889V81.7012V81.7012ZM40.684 161.018V123.891C41.975 123.908 43.394 123.918 44.944 123.918C73.312 123.918 120.139 120.648 141.1 100.685C146.781 108.261 156.525 118.298 170.851 123.683C167.788 127.911 165.102 132.428 162.844 137.191C154.067 134.547 144.151 136.666 137.227 143.587C134.298 146.517 134.298 151.265 137.227 154.194C140.156 157.122 144.905 157.122 147.833 154.194C150.486 151.541 154.196 150.583 157.619 151.303C156.217 156.489 155.293 161.871 154.901 167.405C154.896 167.485 154.891 191.968 154.888 218.609C152.67 220.21 150.35 221.678 147.951 223.025V196.198C147.951 188.025 141.303 181.377 133.13 181.377H92.132C83.96 181.377 77.311 188.025 77.311 196.198V223.04C55.468 210.798 40.684 187.592 40.684 161.018ZM92.311 229.34V196.377H132.951V229.343C126.505 231.23 119.688 232.252 112.632 232.252C105.575 232.252 98.76 231.224 92.311 229.34ZM103.147 246.738C99.068 251.517 93.092 254.352 86.632 254.352C74.792 254.352 65.138 244.839 64.895 233.056C70.165 236.502 75.832 239.396 81.815 241.652C82.057 241.757 82.305 241.853 82.56 241.933C89.091 244.328 95.99 245.964 103.147 246.738ZM142.615 241.958C142.943 241.859 143.259 241.735 143.567 241.595C147.482 240.11 151.264 238.356 154.886 236.349C154.886 239.982 154.885 243.559 154.885 247.031C150.898 251.518 145.09 254.353 138.63 254.353C132.167 254.353 126.188 251.516 122.109 246.733C129.236 245.96 136.107 244.337 142.615 241.958ZM21.294 237.46C21.295 231.749 25.94 227.103 31.649 227.103H50.312C50.04 228.899 49.883 230.732 49.883 232.603C49.883 252.867 66.368 269.352 86.631 269.352C96.575 269.352 105.85 265.394 112.63 258.589C119.411 265.394 128.685 269.352 138.629 269.352C144.464 269.352 149.98 267.976 154.883 265.542C154.882 268.972 154.882 272.082 154.882 274.768L113.33 298.54C113.229 298.569 112.976 298.623 112.629 298.623C112.282 298.623 112.029 298.569 111.928 298.54L43.035 259.127C41.214 258.085 39.315 257.556 37.391 257.556C31.735 257.556 27.469 262.112 27.469 268.153V293.166H21.294V237.46V237.46ZM42.515 308.164V330.679H21.295V308.164H42.515ZM21.295 380.445V345.679H27.47V356.166C27.47 361.461 30.72 367.354 35.196 370.177L51.467 380.445H21.295V380.445ZM149.52 328.182V378.025L120.129 396.573V365.181C120.129 361.038 116.771 357.681 112.629 357.681C108.487 357.681 105.129 361.038 105.129 365.181V396.573L43.264 357.532C42.959 357.256 42.54 356.497 42.47 356.091V345.68H45.016C51.909 345.68 57.516 340.073 57.516 333.18V305.665C57.516 298.772 51.909 293.165 45.016 293.165H42.47V276.084L104.564 311.608C104.752 311.715 104.941 311.802 105.13 311.899V329.181C105.13 333.324 108.488 336.681 112.63 336.681C116.772 336.681 120.13 333.324 120.13 329.181V311.899C120.318 311.803 120.507 311.715 120.694 311.609L156.323 291.226C158.419 295.2 162.587 297.918 167.383 297.918H182.791V302.827H174.875C160.894 302.827 149.52 314.201 149.52 328.182ZM164.52 471.169V430.307H170.695V440.793C170.695 446.088 173.945 451.981 178.421 454.804L204.352 471.169H164.52ZM164.521 415.307V392.793H185.741V415.307H164.521ZM248.355 481.202L186.49 442.159C186.185 441.883 185.766 441.124 185.696 440.718V430.308H188.241C195.134 430.308 200.741 424.701 200.741 417.808V390.294C200.741 383.401 195.134 377.794 188.241 377.794H185.696V360.71L247.789 396.233C247.977 396.34 248.166 396.427 248.355 396.524V481.202ZM255.855 383.248C255.508 383.248 255.255 383.194 255.154 383.165L186.261 343.752C184.44 342.71 182.541 342.181 180.617 342.181C174.961 342.181 170.695 346.737 170.695 352.778V377.793H164.52V328.182C164.52 322.472 169.165 317.827 174.874 317.827H193.125C193.446 337.815 209.795 353.979 229.858 353.979C239.802 353.979 249.076 350.021 255.856 343.216C262.637 350.021 271.911 353.979 281.854 353.979C301.917 353.979 318.266 337.815 318.587 317.827H336.837C342.547 317.827 347.191 322.472 347.191 328.182V377.793H341.016V352.778C341.016 346.737 336.75 342.181 331.094 342.181C329.17 342.181 327.271 342.71 325.452 343.751L256.556 383.165C256.455 383.194 256.202 383.248 255.855 383.248ZM347.191 392.793V415.307H325.971V392.793H347.191ZM263.354 481.202V396.525C263.542 396.429 263.731 396.341 263.918 396.235L326.015 360.711V377.794H323.471C316.578 377.794 310.971 383.401 310.971 390.294V417.808C310.971 424.701 316.578 430.308 323.471 430.308H326.015V440.718C325.944 441.124 325.526 441.883 325.221 442.159L263.354 481.202ZM307.358 471.169L333.288 454.805C337.766 451.981 341.016 446.088 341.016 440.793V430.307H347.192V471.169H307.358V471.169ZM391.303 311.607C391.49 311.714 391.679 311.801 391.868 311.898V396.573L362.192 377.845V328.182C362.192 314.2 350.818 302.827 336.838 302.827H329.21V297.918H344.399C349.234 297.918 353.427 295.154 355.506 291.127L391.303 311.607ZM373.371 254.352C366.766 254.352 360.844 251.388 356.851 246.725C356.847 243.296 356.843 239.77 356.838 236.192C366.81 241.765 377.993 245.442 389.891 246.732C385.813 251.515 379.833 254.352 373.371 254.352ZM399.37 232.252C392.312 232.252 385.495 231.232 379.049 229.344V196.377H419.69V229.341C413.242 231.224 406.427 232.252 399.37 232.252ZM425.368 254.352C418.901 254.352 412.919 251.512 408.841 246.723C422.86 245.209 435.886 240.383 447.106 233.042C446.87 244.832 437.213 254.352 425.368 254.352ZM434.69 223.041V196.198C434.69 188.025 428.041 181.377 419.869 181.377H378.87C370.698 181.377 364.049 188.025 364.049 196.198V223.027C361.542 221.62 359.126 220.071 356.816 218.385C356.784 192.369 356.753 168.692 356.75 168.632C356.416 162.697 355.464 156.937 353.982 151.401C357.513 150.514 361.41 151.437 364.167 154.194C367.096 157.122 371.845 157.122 374.773 154.194C377.702 151.264 377.702 146.516 374.773 143.587C367.763 136.577 357.684 134.497 348.827 137.298C346.591 132.541 343.939 128.022 340.903 123.799C369.344 123.074 409.015 118.611 427.837 100.685C435.177 110.473 449.276 124.394 471.316 127.04V161.018C471.316 187.592 456.532 210.799 434.69 223.041Z" fill="white"/>
<path d="M404.471 156.221H401.767V147.457C401.767 143.314 398.409 139.957 394.267 139.957C390.125 139.957 386.767 143.314 386.767 147.457V160.721C386.767 166.511 391.477 171.221 397.267 171.221H404.471C408.613 171.221 411.971 167.864 411.971 163.721C411.971 159.579 408.613 156.221 404.471 156.221Z" fill="white"/>
<path d="M460.308 143.588C450.287 133.569 433.984 133.568 423.965 143.588C421.036 146.516 421.035 151.265 423.964 154.194C426.892 157.123 431.641 157.124 434.57 154.195C438.742 150.023 445.529 150.022 449.701 154.195C451.166 155.659 453.085 156.391 455.004 156.391C456.923 156.391 458.843 155.659 460.308 154.194C463.237 151.265 463.236 146.516 460.308 143.588Z" fill="white"/>
<path d="M260.684 240.955H258.529V236.851C258.529 232.708 255.171 229.351 251.029 229.351C246.887 229.351 243.529 232.708 243.529 236.851V245.455C243.529 251.245 248.24 255.955 254.029 255.955H260.684C264.826 255.955 268.184 252.598 268.184 248.455C268.184 244.312 264.826 240.955 260.684 240.955Z" fill="white"/>
<path d="M232.872 229.119C228.201 224.449 221.994 221.876 215.394 221.876C208.794 221.876 202.587 224.448 197.915 229.12C194.986 232.049 194.987 236.798 197.916 239.726C200.846 242.654 205.593 242.655 208.523 239.725C210.36 237.887 212.801 236.875 215.394 236.875C217.987 236.875 220.427 237.887 222.266 239.726C223.73 241.19 225.65 241.922 227.569 241.922C229.488 241.922 231.408 241.19 232.872 239.726C235.801 236.796 235.801 232.048 232.872 229.119Z" fill="white"/>
<path d="M313.797 229.12C309.125 224.449 302.918 221.876 296.318 221.876C289.718 221.876 283.511 224.448 278.84 229.119C275.911 232.049 275.911 236.797 278.84 239.726C280.304 241.19 282.224 241.922 284.143 241.922C286.062 241.922 287.982 241.19 289.446 239.726C291.284 237.887 293.725 236.875 296.318 236.875C298.911 236.875 301.352 237.887 303.189 239.725C306.118 242.655 310.867 242.654 313.796 239.726C316.725 236.797 316.725 232.048 313.797 229.12Z" fill="white"/>
<path d="M308.854 397.181C308.854 393.039 305.497 389.681 301.354 389.681C297.212 389.681 293.854 393.038 293.854 397.181V423.159C292.821 422.999 291.763 422.901 290.678 422.901C280.655 422.901 272.5 429.991 272.5 438.706C272.5 447.421 280.655 454.511 290.678 454.511C300.378 454.511 308.353 447.864 308.854 439.536C308.884 439.264 308.854 397.181 308.854 397.181ZM290.678 439.511C289.276 439.511 288.297 439.066 287.794 438.706C288.297 438.346 289.276 437.901 290.678 437.901C292.08 437.901 293.058 438.345 293.56 438.706C293.058 439.066 292.08 439.511 290.678 439.511Z" fill="white"/>
<path d="M450.5 311.656C450.5 307.513 447.142 304.156 443 304.156C438.858 304.156 435.5 307.513 435.5 311.656V337.634C434.467 337.474 433.409 337.376 432.324 337.376C422.301 337.376 414.146 344.466 414.146 353.181C414.146 361.896 422.301 368.986 432.324 368.986C442.024 368.986 449.999 362.34 450.5 354.011C450.53 353.738 450.5 311.656 450.5 311.656ZM432.324 353.986C430.922 353.986 429.943 353.541 429.44 353.181C429.943 352.821 430.921 352.376 432.324 352.376C433.726 352.376 434.704 352.82 435.206 353.181C434.704 353.541 433.726 353.986 432.324 353.986Z" fill="white"/>
</svg>
