<svg width="512" height="512" viewBox="0 0 512 512" fill="none" xmlns="http://www.w3.org/2000/svg">
<path d="M512 0H0V511.68H512V0ZM320.457 32.9414H387.277V37.6836C387.277 55.9883 372.383 70.8828 354.074 70.8828H353.656C335.352 70.8828 320.457 55.9883 320.457 37.6836V32.9414ZM223.641 32.9414H290.457V37.6836C290.457 55.9883 275.562 70.8828 257.258 70.8828H256.84C238.531 70.8828 223.641 55.9883 223.641 37.6836V32.9414ZM126.82 32.9414H193.637V37.6836C193.637 55.9883 178.742 70.8828 160.438 70.8828H160.02C141.711 70.8828 126.82 55.9883 126.82 37.6836V32.9414ZM160.02 100.883H160.438C179.738 100.883 197.035 92.1758 208.641 78.4961C220.242 92.1758 237.539 100.883 256.84 100.883H257.258C276.559 100.883 293.855 92.1758 305.457 78.4961C317.059 92.1758 334.355 100.883 353.656 100.883H354.074C366.992 100.883 379.012 96.9805 389.031 90.3008C393.922 142.742 408.789 185.625 429.953 208.684C419.777 218.23 410.93 231.176 403.863 247.059C401.781 251.742 399.898 256.598 398.207 261.59H115.883C114.191 256.598 112.309 251.742 110.223 247.059C103.156 231.176 94.3125 218.23 84.1328 208.684C105.297 185.621 120.168 142.738 125.059 90.2969C135.078 96.9766 147.098 100.883 160.02 100.883V100.883ZM390.711 291.594C389.539 298.543 388.703 305.652 388.215 312.875H387.191C374.281 312.875 362.547 317.973 353.867 326.254C345.191 317.973 333.453 312.875 320.543 312.875H290.375C277.461 312.875 265.727 317.973 257.051 326.254C248.371 317.973 236.637 312.875 223.723 312.875H193.555C180.645 312.875 168.906 317.973 160.23 326.254C151.551 317.973 139.816 312.875 126.906 312.875H125.875C125.387 305.652 124.551 298.543 123.379 291.594H390.711ZM30 32.9414H96.8203V37.6836C96.8203 55.9883 81.9258 70.8828 63.6172 70.8828H63.1992C44.8945 70.8828 30 55.9883 30 37.6836V32.9414ZM30 91.4297C39.6562 97.4141 51.0273 100.883 63.1992 100.883H63.6172C74.875 100.883 85.4414 97.9102 94.6055 92.7344C88.7539 145.699 72.0781 183.582 55.293 194.348H30V91.4297ZM30 224.348H55.3906C65.7812 230.426 75.4375 242.672 82.8125 259.254C89.7578 274.863 94.2187 293.496 95.7734 312.898C69.5703 313.414 48.4102 334.875 48.4102 361.199V380.672H47.8828C41.5625 380.672 35.5273 381.914 30 384.148V224.348ZM96.3477 481.824H29.8555L30 426.367C31.0859 417.453 38.6836 410.523 47.8828 410.523H78.3203C88.2617 410.523 96.3477 418.613 96.3477 428.551V481.824ZM78.4102 380.676V361.199C78.4102 351.098 86.6289 342.875 96.7344 342.875H126.902C137.008 342.875 145.227 351.098 145.227 361.199V380.672H144.227C131.469 380.672 119.863 385.699 111.273 393.867C102.703 385.719 91.1367 380.695 78.4102 380.676ZM192.695 481.824H126.199V428.555C126.199 418.613 134.289 410.527 144.227 410.527H174.668C184.609 410.527 192.695 418.613 192.695 428.555V481.824ZM175.23 380.688V361.199C175.23 351.098 183.449 342.875 193.555 342.875H223.723C233.828 342.875 242.047 351.098 242.047 361.199V380.672H240.574C227.816 380.672 216.215 385.699 207.621 393.867C199.156 385.82 187.77 380.832 175.23 380.688ZM289.043 481.824H222.551V428.555C222.551 418.613 230.637 410.527 240.574 410.527H271.016C280.953 410.527 289.043 418.613 289.043 428.555V481.824ZM272.047 380.699V361.199C272.047 351.098 280.27 342.875 290.371 342.875H320.543C330.645 342.875 338.867 351.098 338.867 361.199V380.672H336.922C324.16 380.672 312.559 385.699 303.969 393.867C295.609 385.922 284.398 380.961 272.047 380.699V380.699ZM385.391 481.824H318.895V428.555C318.895 418.613 326.98 410.527 336.922 410.527H367.363C377.301 410.527 385.391 418.613 385.391 428.555V481.824ZM368.867 380.711V361.199C368.867 351.098 377.09 342.875 387.191 342.875H417.359C427.465 342.875 435.688 351.098 435.688 361.199V380.672H433.68C420.816 380.672 409.133 385.777 400.52 394.062C392.246 386.105 381.133 381.09 368.867 380.711V380.711ZM482 481.824H415.652V428.555C415.652 418.613 423.738 410.527 433.68 410.527H464.117C473.316 410.527 480.914 417.457 482 426.367V481.824ZM482 384.148C476.93 382.102 471.438 380.898 465.688 380.711V361.199C465.688 334.871 444.523 313.41 418.312 312.898C419.871 293.496 424.328 274.863 431.273 259.254C438.652 242.672 448.309 230.43 458.695 224.348H482V384.148ZM482 194.348H458.828C452.648 190.32 441.477 179.336 431.523 149.977C425.879 133.324 421.801 113.742 419.492 92.7344C428.652 97.9102 439.223 100.883 450.477 100.883H450.895C462.199 100.883 472.809 97.8867 482 92.6641V194.348ZM450.895 70.8828H450.477C432.172 70.8828 417.277 55.9883 417.277 37.6836V32.9414H482V49.2812C477.285 61.8867 465.121 70.8828 450.895 70.8828Z" fill="white"/>
</svg>
