<svg width="50" height="50" viewBox="0 0 50 50" fill="none" xmlns="http://www.w3.org/2000/svg">
<path d="M19.1406 32.8125C18.6016 32.8125 18.1641 33.25 18.1641 33.7891C18.1641 34.3281 18.6016 34.7656 19.1406 34.7656C19.6796 34.7656 20.1172 34.3281 20.1172 33.7891C20.1172 33.25 19.6796 32.8125 19.1406 32.8125Z" fill="#262262"/>
<path d="M47.0703 1.5625H2.92969C1.31416 1.5625 0 2.87666 0 4.49219V35.7422C0 37.3577 1.31416 38.6719 2.92969 38.6719H19.1406V39.6484C19.1406 41.264 17.8265 42.5781 16.2109 42.5781C13.5136 42.5781 11.3281 44.7632 11.3281 47.4609C11.3281 48.0003 11.7653 48.4375 12.3047 48.4375H37.6953C38.2347 48.4375 38.6719 48.0003 38.6719 47.4609C38.6719 44.7685 36.4815 42.5781 33.7891 42.5781C32.1735 42.5781 30.8594 41.264 30.8594 39.6484V38.6719H47.0703C48.6858 38.6719 50 37.3577 50 35.7422V4.49219C50 2.87666 48.6858 1.5625 47.0703 1.5625ZM2.92969 3.51562H47.0703C47.6089 3.51562 48.0469 3.95355 48.0469 4.49219V28.9062H1.95312V4.49219C1.95312 3.95355 2.39105 3.51562 2.92969 3.51562ZM36.5513 46.4844H13.4476C13.8405 45.3705 14.9124 44.5312 16.2109 44.5312H33.7891C35.062 44.5312 36.1485 45.3476 36.5513 46.4844V46.4844ZM29.8855 42.5781H20.1145C20.7291 41.7614 21.0938 40.7467 21.0938 39.6484V38.6719H28.9062V39.6484C28.9062 40.7467 29.2709 41.7614 29.8855 42.5781ZM47.0703 36.7188H2.92969C2.39105 36.7188 1.95312 36.2808 1.95312 35.7422V30.8594H48.0469V35.7422C48.0469 36.2808 47.6089 36.7188 47.0703 36.7188Z" fill="#262262"/>
<path d="M28.9062 32.8125H23.0469C22.5075 32.8125 22.0703 33.2497 22.0703 33.7891C22.0703 34.3285 22.5075 34.7656 23.0469 34.7656H28.9062C29.4456 34.7656 29.8828 34.3285 29.8828 33.7891C29.8828 33.2497 29.4456 32.8125 28.9062 32.8125Z" fill="#262262"/>
<path d="M15.2344 25H34.7656C36.3853 25 37.6953 23.6809 37.6953 22.0703V10.3516C37.6953 8.73566 36.3827 7.42188 34.7656 7.42188H15.2344C13.5895 7.42188 12.3047 8.76617 12.3047 10.3516V22.0703C12.3047 23.7141 13.6486 25 15.2344 25ZM22.9187 19.4042C23.4734 19.9638 24.2126 20.2721 25 20.2721C25.7877 20.2721 26.5266 19.9638 27.0817 19.4038L28.7376 17.7322L34.3975 23.0469H15.6025L21.2624 17.7322L22.9187 19.4042ZM30.1128 16.3441L35.7422 10.6613V21.6305L30.1128 16.3441ZM25.6939 18.0294C25.5089 18.2159 25.2625 18.3189 25 18.3189C24.7375 18.3189 24.4907 18.2159 24.3061 18.0294L15.7326 9.375H34.2674L25.6939 18.0294ZM19.8872 16.3441L14.2578 21.6305V10.6613L19.8872 16.3441Z" fill="#262262"/>
</svg>
