<svg width="60" height="60" viewBox="0 0 60 60" fill="none" xmlns="http://www.w3.org/2000/svg">
<path d="M30 0C18.363 0 8.90625 9.45703 8.90625 21.0938C8.90625 25.0312 9.99633 28.8634 12.0704 32.1681L28.5701 59.1697C28.8516 59.6268 29.2734 59.9081 29.7657 59.9784C30.4335 60.0838 31.1721 59.8027 31.5587 59.1347L48.1056 31.8867C50.0741 28.6525 51.0938 24.8907 51.0938 21.0938C51.0938 9.45703 41.637 0 30 0ZM30 31.6406C24.094 31.6406 19.4531 26.8594 19.4531 21.0938C19.4531 15.2929 24.1991 10.5469 30 10.5469C35.8009 10.5469 40.5469 15.2929 40.5469 21.0938C40.5469 26.8242 35.9764 31.6406 30 31.6406Z" fill="#262262"/>
<path d="M30 0V10.5469C35.8009 10.5469 40.5469 15.2929 40.5469 21.0938C40.5469 26.8242 35.9764 31.6406 30 31.6406V59.9989C30.5999 60.0129 31.2168 59.7253 31.5586 59.1347L48.1055 31.8867C50.0741 28.6525 51.0938 24.8907 51.0938 21.0938C51.0938 9.45703 41.637 0 30 0Z" fill="#262262"/>
</svg>
