<svg width="512" height="512" viewBox="0 0 512 512" fill="none" xmlns="http://www.w3.org/2000/svg">
<g clip-path="url(#clip0)">
<path d="M496.781 240.21C495.22 238.202 493.062 236.807 490.696 235.916C490.33 235.778 489.693 235.626 488.968 235.477C490.568 233.473 492.019 231.395 492.643 228.711C493.592 224.628 491.776 220.694 488.641 218.073C484.241 214.395 478.708 215.108 473.501 217.111C473.691 215.568 473.626 213.974 473.083 212.546C471.983 209.656 469.537 208.242 466.748 207.907C467.8 204.909 468.553 201.802 469.602 198.781C471.479 193.375 473.8 188.145 475.623 182.712C478.857 173.066 481.726 163.257 485.372 153.758C487.28 148.787 489.865 143.75 490.878 138.5C491.584 134.839 490.296 132.195 488.66 128.938C486.328 124.296 483.553 119.93 480.955 115.437C478.684 111.51 477.001 106.998 474.353 103.331C473.3 101.874 471.2 100.884 469.505 102.06C463.625 106.139 458.579 112.035 453.945 117.426C451.94 119.758 449.551 121.714 448.299 124.591C446.776 128.092 446.253 132.484 445.213 136.164C445.068 136.673 444.936 137.186 444.794 137.696C437.715 136.572 429.792 137.263 422.774 137.145C414.915 137.013 405.079 136.098 397.244 138.269C397.401 136.097 397.58 133.938 397.826 131.816C398.537 125.682 396.537 122.23 393.093 117.359C389.202 111.858 385.983 104.956 380.952 100.358C380.09 99.5701 378.866 99.1301 377.705 99.5001C374.752 100.441 373.624 103.18 371.905 105.517C368.691 109.887 365.133 114.465 361.55 118.515C359.169 121.207 355.691 124.013 354.267 127.296C352.513 131.336 353.521 137.631 353.287 142.014C353.149 144.606 352.999 147.197 352.846 149.789C352.458 149.818 352.055 149.889 351.62 150.058C347.128 151.81 341.339 151.154 336.165 151.836C338.001 147.044 339.162 141.88 339.839 136.531C340.338 132.589 338.771 126.42 333.697 126.832C332.606 126.921 331.563 127.237 330.571 127.702C331.57 124.346 331.956 120.901 330.775 117.979C328.72 112.895 322.572 112.231 318.178 114.646C317.369 115.09 316.633 115.589 315.954 116.128C315.983 115.951 316.018 115.776 316.044 115.599C316.606 111.788 317.131 105.815 313.249 103.429C308.135 100.286 303.351 105.425 300.367 109.452C300.05 105.822 298.39 102.251 295.785 99.8161C293.557 97.7341 290.848 96.2421 288.401 94.4531C285.446 92.2911 283.015 89.4981 280.246 87.1061C277.483 84.7181 274.102 80.1111 270.018 82.3871C266.147 84.5441 263.282 91.9321 261.494 95.6881C258.739 101.475 254.391 107.261 252.471 113.362C250.734 118.88 252.867 125.616 253.052 131.268C253.118 133.291 253.169 135.304 253.22 137.314C245.92 136.422 237.679 138.788 230.345 140.692C231.773 134.869 229.543 128.112 225.345 123.438C225.03 123.087 224.695 122.848 224.354 122.693C225.016 120.261 225.299 117.745 225.277 115.554C225.255 113.342 224.856 111.193 224.185 109.122C232.979 100.966 242.491 93.9751 247.914 82.7931C252.786 72.7481 250.465 60.7421 239.517 56.3391C226.826 51.2351 211.855 53.0771 198.651 54.5251C197.824 54.6161 197.003 54.7261 196.178 54.8261C188.151 41.7111 180.493 28.8001 168.726 19.1231C171.627 17.6861 174.631 16.3811 177.652 15.2311C182.142 13.5211 180.336 6.32308 175.631 7.90008C172.901 8.81608 170.388 9.96508 167.931 11.4691C167.082 11.9881 166.263 12.6021 165.445 13.2231C165.667 12.0741 165.925 10.9691 165.999 10.2251C166.226 7.96008 167.216 5.26608 165.717 3.26008C164.212 1.24508 161.212 0.858083 159.78 3.26008C158.616 5.21208 158.943 7.46208 158.909 9.64608C158.894 10.6041 158.965 11.5401 159.058 12.4701C142.643 2.86208 125.647 -1.54692 106.33 0.487083C88.2549 2.38908 68.2509 8.63408 56.5839 23.4451C44.6929 38.5401 38.6079 57.2671 36.9059 76.2401C35.8679 87.8131 37.8469 99.5791 40.6849 110.77C41.8949 115.541 43.8189 120.152 45.8209 124.645C46.8329 126.916 47.9319 129.52 49.6039 131.497C45.3859 136.474 41.4239 141.654 37.7319 147.015C36.9239 144.72 36.2939 142.449 37.3929 140.272C38.8599 137.364 35.8639 134.094 32.8729 135.752C28.8329 137.992 29.7099 143.772 30.7849 147.499C30.9659 148.125 31.2029 149.222 31.5219 150.136C29.3189 149.478 26.9519 148.869 24.7339 148.839C22.8669 148.814 21.5419 150.377 21.4309 152.142C21.2339 155.27 26.3199 157.92 30.2669 158.777C29.7139 159.726 29.1599 160.673 28.6249 161.632C24.2409 169.487 14.3719 188.855 24.3939 195.935C30.0679 199.943 39.5739 197.392 45.8989 196.711C49.7949 196.292 53.6429 195.709 57.4359 194.7C58.3039 194.469 59.1789 194.27 60.0219 193.961C60.4179 193.816 60.8139 193.706 61.1719 193.608C61.4139 194.505 61.7289 195.389 62.1929 196.248C62.4699 196.763 62.7869 197.282 63.1169 197.801C64.2529 201.079 65.8969 203.908 68.5719 206.779C68.6129 206.823 68.6409 206.857 68.6799 206.901C65.9349 205.575 62.8629 205.092 60.0069 206.115C55.3549 207.78 54.2429 212.557 53.7829 217.226C49.6529 214.418 45.5329 211.796 39.9769 214.365C35.3089 216.523 34.6039 220.691 34.9669 225.022C33.4389 224.571 31.8379 224.31 29.9639 224.605C26.9069 225.087 24.0529 226.877 22.4039 229.565C20.5889 232.524 20.4949 236.215 21.3659 239.488C21.6729 240.641 22.2669 241.716 22.9249 242.758C21.6469 242.992 20.3599 243.428 18.9779 244.277C15.1359 246.638 12.5249 250.959 13.2559 255.529C14.5059 263.343 23.3819 269.072 31.4259 270.749C29.4099 276.268 28.8669 282.646 28.9209 287.919C29.0269 298.102 31.4799 308.113 33.2609 318.081C34.1139 322.858 34.7989 327.391 34.0549 332.212C33.2729 337.277 31.5329 342.092 30.5929 347.116C28.7069 357.185 30.7869 367.23 31.4259 377.328C31.7289 382.119 32.6099 386.853 33.3989 391.583C34.3739 397.431 36.3729 403.548 35.1049 409.474C34.0629 414.347 32.6669 418.736 32.6919 423.797C32.7179 429.108 33.7659 434.367 34.5659 439.598C35.3159 444.504 35.8509 448.556 35.4529 453.532C34.9959 459.255 34.0869 465.023 33.7919 470.745C33.5679 475.084 34.4799 479.765 35.1469 484.056C35.7909 488.205 35.9129 492.974 38.5979 496.407C43.5969 502.798 55.7259 501.18 62.8479 501.052C73.6579 500.858 84.6249 502.409 95.4239 502.936C107.119 503.507 118.647 504.359 130.297 505.618C152.315 507.998 174.735 510.104 196.796 507.182C208.544 505.626 220.268 504.168 232.14 504.192C243.62 504.215 255.074 504.961 266.54 505.41C277.85 505.853 289.284 506.02 300.569 504.996C311.681 503.988 322.569 502.274 333.769 503.408C344.688 504.512 355.125 505.62 366.137 505.492C377.617 505.357 389.079 505.746 400.518 506.742C412.063 507.747 423.537 509.83 435.149 509.821C440.178 509.817 445.254 509.447 450.253 510.128C455.457 510.837 460.63 512.264 465.928 511.956C475.488 511.4 482.659 506.436 485.799 497.182C489.043 487.622 487.415 476.785 488.839 466.894C489.48 462.44 490.498 458.002 490.944 453.523C491.372 449.228 492.31 443.743 491.508 439.456C489.825 430.466 479.261 429.37 471.86 428.477C467.275 427.924 461.849 426.557 457.245 426.616C458.259 425.632 459.287 424.356 459.998 423.653C463.765 419.931 467.414 416.118 471.386 412.602C475.328 409.115 480.04 406.155 483.071 401.762C488.637 393.696 489.053 382.851 490.235 373.446C490.843 368.607 491.684 363.778 491.952 358.903C492.279 352.959 491.512 347.008 491.354 341.067C491.059 330.012 492.556 318.932 493.08 307.896C493.555 297.909 492.617 287.465 491.243 277.565C490.213 270.139 487.263 265.967 481.732 263.86C482.725 263.297 483.716 262.727 484.712 262.158C489.107 259.648 493.53 256.819 496.49 252.61C499.284 248.643 499.897 244.214 496.781 240.21ZM450.644 145.457C451.777 141.34 453.191 137.219 454.118 133.051C454.47 131.464 454.439 129.635 455.001 128.127C455.807 125.963 457.727 124.356 459.159 122.639C462.742 118.343 466.608 114.241 470.72 110.416C472.264 113.173 473.333 116.419 474.7 119.092C476.779 123.157 479.05 127.119 480.95 131.273C483.405 136.638 482.135 138.607 480.005 144.087C478.455 148.073 476.817 152.03 475.404 156.067C472.343 164.814 469.666 173.697 466.632 182.454C463.511 191.464 459.404 200.174 457.497 209.569C454.959 210.571 452.533 211.903 450.542 213.352C449.339 214.227 448.254 215.221 447.254 216.3C447.121 214.35 446.955 212.411 446.769 210.497C446.315 205.84 445.858 198.926 440.037 197.964C439.649 197.9 439.256 197.887 438.861 197.896C439.324 193.648 439.101 189.176 439.099 185.542C439.097 183.918 439.064 182.363 439.005 180.835C441.026 177.471 442.081 172.535 443.114 169.61C445.924 161.651 448.404 153.595 450.644 145.457ZM396.87 144.244C405.067 146.36 414.453 145.302 422.775 145.471C427.386 145.565 431.967 145.855 436.584 145.856C438.471 145.856 440.51 146.087 442.522 146.169C441.146 151.447 439.805 156.733 438.366 161.993C437.917 163.632 437.488 165.257 437.09 166.877C436.817 165.802 436.521 164.716 436.175 163.602C434.257 157.433 433.687 152.521 427.23 149.264C421.279 146.262 414.912 150.795 409.821 153.814C403.759 157.409 399.863 163.764 394.828 168.588C396.149 160.641 396.436 152.369 396.87 144.244ZM423.444 181.931C421.608 180.608 419.603 179.521 417.361 178.602C416.725 178.341 416.079 178.095 415.427 177.861C419.22 172.216 422.57 166.357 425.383 159.902C425.762 161.377 425.686 163.074 425.997 164.457C426.627 167.258 427.664 169.921 428.208 172.764C428.392 173.725 428.521 174.705 428.62 175.695C426.626 177.224 424.906 179.503 423.444 181.931ZM427.679 196.464C427.352 197.933 427.009 199.43 426.793 200.884C425.507 201.292 424.234 201.749 422.974 202.333C421.832 202.862 420.716 203.45 419.615 204.071C421.133 200.999 422.271 197.585 423.287 195.404C423.738 194.438 424.217 193.505 424.709 192.587C425.737 193.819 426.72 195.114 427.679 196.464ZM411.266 173.042C410.589 174.075 409.882 175.101 409.163 176.124C406.73 175.64 404.256 175.364 401.794 175.366C404.41 172.577 406.629 169.462 408.981 166.393C410.58 164.308 415.196 159.107 419.298 157.379C416.654 162.617 414.519 168.082 411.266 173.042ZM411.699 183.182C411.886 183.248 412.074 183.3 412.262 183.369C415.363 184.514 417.949 186.134 420.244 188.068C419.967 188.657 419.702 189.226 419.456 189.749C417.828 193.222 416.374 196.787 414.986 200.362C414.615 201.317 414.146 202.357 413.722 203.432C410.796 199.071 407.923 196.445 403.01 194.31C404.101 193.045 405.17 191.761 406.201 190.444C408.105 188.013 409.935 185.603 411.699 183.182ZM410.323 210.161C408.825 211.225 407.336 212.288 405.843 213.312C403.858 214.674 401.99 216.162 400.194 217.728C398.037 216.269 395.35 215.647 392.662 215.183C390.669 214.839 388.472 214.308 386.285 214.058C388.392 211.213 390.442 208.316 392.761 205.68C394.681 203.496 396.658 201.362 398.622 199.215C404.436 201.359 407.574 205.396 410.323 210.161ZM384.53 206.688C383.474 208.24 382.166 210.026 381.013 211.924C379.562 207.84 377.996 203.863 375.995 199.881C376.988 198.314 377.555 196.349 378.606 194.766C378.616 194.752 378.627 194.738 378.637 194.724C379.016 194.768 379.28 194.796 379.302 194.798C381.656 194.942 384.071 195.104 386.386 195.586C388.28 195.981 390.226 196.511 392.159 197.096C389.471 200.174 386.837 203.296 384.53 206.688ZM395.6 222.03C393.88 223.745 392.203 225.51 390.536 227.293C389.296 228.619 388.037 230.005 386.848 231.459C385.835 226.846 384.57 222.422 383.242 218.444C383.233 218.415 383.223 218.386 383.213 218.358C387.23 219.802 391.513 220.672 395.6 222.03ZM388.757 243.523C396.37 236.779 403.05 228.856 411.553 223.082C419.323 217.805 427.188 212.147 436.18 209.238C436.213 210.406 436.391 211.8 436.415 212.285C436.551 215.071 436.629 217.781 436.595 220.572C436.53 225.861 436.881 231.066 435.78 236.279C434.034 244.539 430.011 252.35 428.219 260.521C421.906 260.646 415.61 260.978 409.223 261.186C402.193 261.414 395.147 261.016 388.11 260.506C389.206 255.182 389.294 249.367 388.757 243.523ZM395.973 180.419C399.033 180.79 402.095 181.059 405.144 181.565C402.691 184.741 400.132 187.846 397.602 190.839C397.295 191.201 396.984 191.56 396.675 191.919C392.398 190.545 387.502 189.48 383.124 189.752C384.717 188.356 386.431 187.086 388.137 185.859C390.715 184.005 393.404 182.291 395.973 180.419ZM356.063 196.62C356.707 191.91 357.122 187.226 357.392 182.479C357.996 171.861 358.087 161.161 358.931 150.565C359.298 145.953 359.617 141.375 359.918 136.763C360.05 134.742 359.729 131.173 360.625 129.395C361.203 128.248 363.257 126.59 364.14 125.501C367.318 121.584 370.49 117.643 373.685 113.735C375.033 112.086 376.513 110.531 377.761 108.803C377.908 108.599 378.186 108.055 378.481 107.495C381.83 111.527 384.295 116.613 387.164 120.814C388.545 122.837 390.646 125.438 390.956 127.974C391.332 131.066 390.08 135.003 389.866 138.118C389.341 145.757 389.092 153.527 388.103 161.115C387.502 165.73 386.665 170.407 386.789 175.062C384.525 176.725 382.257 178.382 380.132 180.211C376.391 183.429 372.849 187.372 371.114 192.07C370.068 191.554 368.733 191.461 366.923 192.037C362.65 193.396 358.998 195.87 355.82 198.968C355.883 198.2 355.953 197.423 356.063 196.62ZM358.426 211.752C360.149 208.978 362.018 205.752 364.428 203.534C364.879 203.119 366.72 201.316 368.195 200.056C369.61 203.838 370.797 208.193 371.485 211.796C372.548 217.372 374.268 222.817 375.485 228.384C376.741 234.126 377.748 239.842 378.104 245.725C378.391 250.475 378.19 255.185 378.841 259.815C377.21 259.696 375.579 259.582 373.951 259.481C362.745 258.786 351.805 259.813 340.641 260.614C343.138 249.346 345.229 237.926 350.149 227.404C352.631 222.095 355.333 216.733 358.426 211.752ZM332.972 261.051C324.126 261.435 315.294 261.399 306.423 261.087C294.638 260.672 282.922 260.285 271.141 261.032C266.672 261.315 262.234 261.395 257.803 261.405C257.539 259.068 256.677 256.698 255.983 254.313C255.307 251.989 254.518 249.768 253.457 247.591C252.7 246.038 250.777 243.658 250.107 241.628C253.757 236.839 256.203 229.615 254.679 223.679C258 223.989 261.731 222.47 264.723 221.201C267.246 220.131 269.735 218.935 272.13 217.58C273.299 218.495 273.448 220.448 272.874 222.851C271.523 228.513 268.709 233.749 267.693 239.49C267.319 241.603 268.613 244.031 271.065 243.917C276.037 243.687 279.804 236.832 284.061 234.649C287.884 232.688 287.896 234.684 287.84 237.798C287.804 239.792 287.668 241.918 289.029 243.572C292.313 247.564 296.518 244.448 298.205 240.898C299.655 237.846 299.797 233.236 302.651 231.074C306.38 228.25 307.649 232.758 310.068 234.886C312.251 236.807 315.83 236.7 317.364 233.946C319.312 230.449 318.906 216.565 325.57 219.08C329.709 220.641 328.6 227.2 333.48 228.748C335.805 229.486 337.79 227.859 338.607 225.837C339.519 223.582 339.493 220.821 340.808 218.748C341.736 217.283 342.773 216.671 343.965 216.335C342.965 218.314 342.032 220.272 341.157 222.149C337.832 229.285 335.62 236.648 334.176 244.385C333.211 249.563 331.616 255.757 332.972 261.051ZM246.576 222.066C246.134 226.006 244.391 229.42 242.689 232.91C239.465 228.902 235.959 224.81 232.168 221.38C231.113 220.425 229.96 219.379 228.73 218.41C231.52 216.812 232.339 213.235 232.209 210.261C231.988 205.227 228.283 197.508 223.271 193.991C223.615 193.492 223.935 192.977 224.196 192.429C224.658 191.46 225.12 190.141 225.46 188.718C228.523 191.083 231.997 192.917 235.059 195.303C237.935 198.196 240.335 201.674 242.161 205.157C242.216 205.261 242.267 205.368 242.322 205.473C243.735 209.396 244.56 213.561 246.49 217.244C246.614 218.179 246.672 219.13 246.676 220.094C246.437 220.714 246.406 221.418 246.576 222.066ZM179.199 252.091C172.624 245.956 162.566 243.149 153.806 242.38C144.481 241.561 135.313 243.756 126.523 246.602C123.248 247.662 120.308 249.21 117.355 250.819C117.249 250.681 117.132 250.553 117.004 250.435C118.327 248.208 118.371 244.981 118.357 242.272C120.629 242.46 122.397 242.481 124.48 240.218C126.749 237.754 127.47 234.45 126.527 231.232C124.769 225.232 116.737 219.445 110.279 219.77C110.247 219.083 110.183 218.401 110.085 217.729C109.853 216.134 109.159 213.658 108.045 211.449C112.816 213.729 118.077 215.37 122.831 216.202C123.955 216.398 125.08 216.549 126.206 216.674C126.704 222.267 135.152 226.742 139.187 229.13C146.303 233.343 154.794 234.463 162.921 233.311C171.306 232.122 180.189 228.028 185.485 221.283C189.043 216.752 191.728 209.663 191.887 203.312C192.447 203.658 193 203.979 193.485 204.284C195.201 205.363 197.399 206.571 199.545 207.289C197.571 211.536 196.652 216.073 197.997 219.281C200.712 225.756 206.11 221.903 210.207 218.07C210.716 220.812 211.98 223.218 215.334 223.835C218.101 224.344 219.791 222.872 220.944 220.809C222.696 223.294 224.943 225.32 227.066 227.671C230.958 231.98 234.803 236.82 237.937 241.715C240.95 246.422 242.931 251.148 244.385 256.522C244.689 257.644 244.955 258.763 245.273 259.831C241.82 259.953 238.333 260.363 235.156 260.542C228.12 259.148 220.301 259.983 213.431 260.019C203.059 260.075 192.662 260.192 182.346 260.328C182.986 257.622 181.677 254.403 179.199 252.091ZM82.7029 287.609C83.8449 289.754 81.3529 293.819 78.9249 290.859C78.0609 289.806 77.7449 288.423 77.5629 286.976C78.1099 286.145 78.5369 285.2 78.9909 284.251C80.4639 281.172 82.0519 278.591 84.5809 276.308C90.4759 270.986 96.3359 266.474 103.341 262.69C103.737 262.476 104.12 262.242 104.499 262.005C104.795 262.567 105.132 263.157 105.467 263.849C108.444 270.006 104.676 276.127 97.5559 274.226C95.1919 273.595 93.1479 275.768 93.7009 278.081C94.2859 280.526 96.3419 283.944 92.6489 284.986C90.6919 285.538 88.3209 283.337 86.4169 282.779C83.5639 281.944 81.3919 285.148 82.7029 287.609ZM103.101 128.18C102.896 127.815 102.643 127.517 102.362 127.266C105.75 125.065 109.205 122.962 112.46 120.558C116.971 117.227 121.395 113.77 125.92 110.461C131.111 106.666 137.219 104.355 142.957 101.535C147.352 99.3741 151.816 97.6321 156.397 96.0961C157.472 100.446 161.115 104.282 165.17 106.247C172.653 109.874 180.039 103.833 187.229 106.244C197.14 109.567 198.903 118.877 203.406 126.77C204.347 128.419 205.604 129.86 207.063 130.96C205.864 137.601 208.201 144.934 208.208 151.641C208.216 160.05 207.472 168.508 203.443 176.037C196.346 189.303 180.533 197.829 166.757 202.365C153.413 206.758 139.062 211.335 124.821 208.986C118.239 207.901 111.057 204.998 105.375 201.453C100.376 198.335 96.8889 192.769 92.2869 189.163C91.7639 183.409 91.8409 178.791 94.3899 173.413C97.9799 165.839 103.924 159.478 105.634 151.039C107.147 143.574 106.876 134.914 103.101 128.18ZM204.275 197.435C204.801 197.754 205.359 198.026 205.93 198.274C205.325 198.826 204.724 199.456 204.136 200.134C202.661 198.89 200.689 198.421 198.916 197.804C198.04 197.499 196.692 196.874 195.245 196.358C196.978 195.069 198.652 193.714 200.221 192.261C200.369 192.757 200.532 193.199 200.623 193.401C201.415 195.167 202.627 196.433 204.275 197.435ZM203.648 188.78C205.352 186.887 206.922 184.888 208.29 182.753C209.654 184.532 211.444 185.554 214.262 186.132C215.787 186.445 217.236 186.489 218.61 186.284C218.318 188.051 217.964 189.805 216.747 191.029C214.923 192.864 212.107 193.187 209.669 192.84C206.719 192.421 205.147 191.024 203.648 188.78ZM203.974 210.92C204.916 206.67 207.879 203.288 209.243 199.27C211.549 199.693 213.959 199.631 216.157 199.03C216.887 198.83 217.595 198.55 218.281 198.221C220.261 200.537 222.81 202.354 224.329 205.123C224.944 206.243 227.105 210.988 225.964 212.274C225.019 213.338 222.68 211.277 221.427 210.921C220.308 210.603 218.936 211.123 218.372 212.164C217.663 213.472 216.763 218.019 215.748 215.859C215.16 214.607 215.353 212.751 215.1 211.37C214.793 209.7 212.495 208.841 211.125 209.753C209.403 210.9 207.967 212.105 206.447 213.481C205.581 214.404 204.633 215.235 203.604 215.974C203.19 214.227 203.313 212.543 203.974 210.92ZM220.064 178.388C218.026 180.55 215.251 180.503 212.486 180.074C211.711 179.954 210.987 179.646 210.268 179.341C212.15 175.638 213.381 171.756 214.164 167.754C215.371 168.489 216.786 168.95 218.111 169.139C220.232 169.442 222.28 169.087 224.185 168.319C224.105 169.601 223.935 170.792 223.403 172.251C222.596 174.46 221.705 176.647 220.064 178.388ZM207.326 117.845C203.399 109.641 195.434 100.993 185.96 99.3191C180.553 98.3631 175.348 101.39 169.97 101.021C165.468 100.713 163.174 97.5441 160.425 94.8031C160.976 94.6341 161.525 94.4641 162.079 94.2981C164.96 93.4391 168.031 93.0831 171.098 92.7281C171.372 92.7901 171.668 92.8251 172.008 92.8011C179.017 92.3141 185.494 90.0121 192.515 91.8631C198.633 93.4751 204.658 95.4441 209.387 99.8321C211.679 101.959 214.815 106.17 216.662 110.634C218.825 115.86 219.22 121.431 214.427 124.408C210.532 126.827 208.626 120.56 207.326 117.845ZM183.638 203.526C182.844 207.767 182.384 212.085 179.79 215.787C175.385 222.074 166.618 225.29 159.228 225.909C151.97 226.518 145.673 224.689 139.369 221.213C137.586 220.229 135.431 218.491 133.221 217.021C145.677 216.938 158.081 213.28 169.764 209.344C174.369 207.792 179.076 205.848 183.638 203.526ZM98.2609 235.731C100.55 235.399 102.753 234.572 104.603 233.256C107.359 231.294 109.012 228.402 109.782 225.236C112.63 226.33 116.085 227.424 118.226 229.264C119.968 230.761 122.64 233.634 120.596 236.304C119.581 237.629 117.492 237.543 116.065 237.497C115.091 237.465 114.062 238.233 113.839 239.191C113.339 241.347 113.768 245.713 110.777 245.468C110.568 245.451 109.094 244.203 108.641 244.019C107.429 243.528 105.947 244.563 105.644 245.721C105.237 247.273 102.344 251.324 99.9789 250.264C98.1809 249.459 98.2199 245.012 98.1999 243.484C98.1679 240.821 98.2919 238.294 98.2609 235.731ZM89.9379 228.515C88.2969 227.527 87.0869 225.965 85.9759 224.335C87.9789 224.608 90.0089 224.46 91.8349 223.806C96.1809 222.25 100.101 217.283 101.562 212.584C104.212 217.375 105.936 223.788 101.564 227.796C98.6209 230.493 93.2289 230.498 89.9379 228.515ZM92.7959 214.618C90.1479 217.921 86.2879 218.773 82.5629 216.503C82.3669 216.383 82.1689 216.23 81.9709 216.065C80.9169 213.66 80.8099 212.116 80.6609 209.668C85.7859 209.641 89.7879 206.083 91.5139 201.081C91.7189 200.487 91.8769 199.889 92.0149 199.289C95.1469 204.24 97.0049 209.368 92.7959 214.618ZM82.3369 225.53C82.9799 228.542 85.0739 231.545 87.2279 233.151C89.1429 234.578 91.4559 235.437 93.8589 235.754C90.9809 241.321 91.2219 250.12 94.5889 254.423C95.9859 256.208 97.4859 257.09 98.9869 257.34C94.8059 260.614 89.7229 263.198 85.6479 266.296C82.9809 268.323 80.2829 270.73 77.9079 273.105C76.5899 274.423 75.5279 276.012 74.5189 277.569C74.1819 278.09 73.6159 279.411 73.0359 280.537C69.7679 277.57 67.0349 272.339 66.0729 268.814C64.4509 262.869 64.7889 256.372 65.9759 250.356C67.2289 244.001 70.3309 238.065 74.9039 233.496C75.8899 232.511 76.8439 231.482 77.7869 230.442C79.4479 228.931 81.1839 227.317 82.3369 225.53ZM98.3619 289.741C101.57 286.907 101.773 284.005 101.053 280.816C105.707 280.693 110.002 278.73 112.359 273.839C114.364 269.679 113.886 265.95 112.225 262.513C114.398 260.065 118.339 258.947 121.085 257.368C124.341 255.495 127.428 254.009 130.997 252.84C138.439 250.404 145.863 248.48 153.807 249.078C160.307 249.568 169.353 251.39 174.493 256.041C173.758 256.559 173.029 257.093 172.262 257.526C170.455 257.454 168.687 257.405 166.855 257.587C163.762 257.893 160.817 258.587 157.942 259.776C144.265 265.43 135.803 276.398 125.341 286.211C120.135 291.094 112.908 296.669 105.452 297.088C103.448 297.201 101.148 296.943 98.9309 296.429C96.6489 295.344 94.6229 293.674 92.9479 291.813C94.6729 291.935 96.4289 291.449 98.3619 289.741ZM241.489 190.882C240.601 190.093 238.907 188.673 236.876 187.224C238.984 185.784 241.184 184.754 243.599 186.182C247.248 188.339 246.752 193.864 250.564 195.659C251.916 196.296 253.02 195.889 254.324 196.725C256.971 198.422 255.906 201.271 255.773 203.917C255.647 206.421 256.418 208.964 255.706 211.343C255.281 212.762 254.567 214.265 253.836 215.721C253.18 211.798 251.855 207.998 250.01 204.416C249.553 203.529 249.007 202.529 248.388 201.464C247.036 197.515 244.876 193.891 241.489 190.882ZM299.651 223.249C297.348 224.617 295.563 226.185 294.145 228.425C292.905 226.815 291.135 225.689 289.012 225.452C285.299 225.037 281.171 227.378 278.249 229.518C280.111 224.031 281.332 218.405 278.311 214.129C278.209 213.985 278.104 213.859 278.001 213.725C279.608 212.501 281.143 211.182 282.559 209.728C288.664 203.458 293.341 195.882 298.622 188.925C298.632 193.63 299.172 198.454 299.031 202.786C298.812 209.489 299.001 216.516 299.651 223.249ZM350.262 205.595C349.445 206.759 348.673 207.959 347.929 209.174C344.04 207.344 340.077 207.504 336.68 210.49C334.843 212.105 333.756 213.934 332.969 215.894C332.15 214.731 331.403 213.749 331.139 213.515C328.282 210.98 324.408 209.405 320.614 210.478C317.098 211.473 314.583 214.424 312.965 217.569C312.029 219.387 311.596 221.464 311.156 223.515C310.447 222.966 309.641 222.473 308.582 222.102C308.576 222.1 308.57 222.099 308.564 222.097C308.902 215.402 307.912 208.384 307.749 201.769C307.682 199.041 307.339 196.334 306.968 193.63C308.651 193.691 310.413 193.379 312.084 193.166C317.11 192.526 322.139 191.833 327.165 191.172C332.167 190.514 337.132 189.527 342.153 189.005C345.067 188.702 348.005 188.694 350.8 187.925C350.705 189.891 350.59 191.855 350.401 193.808C350.035 197.567 349.427 201.786 350.262 205.595ZM341.191 158.998C344.568 159.065 348.853 159.391 352.318 158.519C351.943 164.623 351.568 170.728 351.251 176.837C351.211 177.613 351.184 178.392 351.152 179.17C350.41 178.994 349.603 179.018 348.765 179.285C348.791 179.242 348.4 179.297 347.571 179.455C346.525 179.754 345.463 179.931 344.383 179.986C342.779 180.204 341.171 180.366 339.57 180.622C334.871 181.374 330.212 182.352 325.52 183.143C321.64 183.797 317.768 184.354 313.949 185.331C311.517 185.953 308.669 186.405 306.16 187.331C305.915 185.17 305.667 183.29 304.966 181.436C307.145 179.191 309.493 177.112 312.127 175.311C315.015 174.099 317.918 173.474 320.598 171.708C325.745 168.316 329.634 164.062 332.562 159.225C335.379 159.521 338.48 158.944 341.191 158.998ZM298.537 123.277C299.597 121.317 307.799 105.729 310.893 108.882C312.839 110.864 309.636 119.289 308.945 121.251C307.033 126.676 303.92 131.415 302.553 137.066C301.935 139.622 305.734 141.497 306.978 138.931C308.977 134.806 311.107 130.776 312.84 126.598C314.256 125.01 315.762 123.515 317.257 122.248C319.7 120.178 324.206 116.128 325.258 123.095C325.527 124.877 323.827 127.941 323.155 129.526C320.498 135.803 315.705 141.126 313.605 147.557C313.177 148.868 314.33 150.361 315.698 150.306C322.433 150.039 322.923 140.171 327.126 136.589C329.607 134.475 332.724 134.212 333.837 137.574C335.465 142.492 329.948 151.015 327.56 154.961C324.673 159.732 319.918 164.51 314.709 166.775C313.408 167.341 312.149 167.821 310.921 168.301C298.957 169.635 291.473 184.555 284.561 193.685C282.928 195.527 281.252 197.327 279.469 199.023C275.139 203.143 270.486 207.342 265.217 210.211C264.472 210.617 263.713 211.002 262.952 211.382C263.082 208.592 261.523 206.222 261.323 203.179C261.115 200.025 261.689 197.7 259.868 194.875C258.401 192.601 256.74 191.832 254.607 191.168C254.461 190.333 254.267 189.362 254.125 188.921C253.522 187.06 252.814 185.027 251.637 183.453C251.273 182.966 250.844 182.477 250.373 182.001C255.277 180.321 260.048 176.875 263.584 174.116C271.193 168.179 277.742 162.14 279.963 152.373C282.425 141.543 278.431 131.683 278.733 120.851C278.811 118.045 280.121 112.136 284.124 114.552C286.467 115.967 286.567 120.193 286.889 122.594C287.409 126.463 287.161 130.29 287.666 134.145C288.054 137.114 291.427 138.21 293.259 135.66C295.745 132.199 296.48 127.081 298.537 123.277ZM260.43 117.571C260.967 113.736 264.032 109.542 265.722 106.043C267.233 102.913 268.599 99.7031 270.139 96.5931C270.578 95.7061 271.927 93.0061 273.025 91.1101C276.57 94.0541 279.577 97.7911 283.2 100.569C285.654 102.451 289.117 104.02 290.805 106.662C292.581 109.439 291.94 112.697 293.954 115.466C293.947 116.605 293.962 117.747 294.007 118.887C293.427 119.861 292.873 120.841 292.378 121.832C292.355 121.877 292.338 121.928 292.315 121.973C291.581 117.393 290.142 113.046 286.489 110.104C278.627 103.772 272.905 113.881 272.391 120.851C271.453 133.566 276.243 146.379 269.359 158.219C267.29 161.778 264.23 165.014 261.055 167.899C261.241 166.484 261.233 165.017 261.205 163.435C261.126 158.932 261.257 154.389 261.006 149.889C260.602 142.649 261.072 135.419 260.781 128.175C260.647 124.813 259.961 120.923 260.43 117.571ZM255.969 169.107C256.237 169.889 256.547 170.645 256.91 171.365C254.656 172.842 248.753 176.34 245.633 178.684C244.277 178.082 242.867 177.734 241.527 177.8C238.291 177.958 234.48 179.953 232.614 182.563C232.366 182.91 232.058 183.469 231.781 184.101C229.604 183.017 227.442 182.323 225.7 182.56C225.676 182.464 225.664 182.359 225.635 182.266C227.434 180.202 229.556 176.504 230.542 172.896C233.233 172.626 235.901 172.2 238.561 171.709C238.64 171.699 238.724 171.686 238.801 171.677C244.168 171.044 249.577 169.77 254.939 169.321C255.31 169.291 255.649 169.21 255.969 169.107ZM232.606 148.552C236.187 147.826 239.825 147.232 243.408 146.571C244.858 146.304 246.557 146.018 248.28 145.626C250.013 145.292 251.738 144.935 253.452 144.53C253.555 147.078 253.684 149.628 253.901 152.188C254.137 154.963 254.2 158.095 254.477 161.21C246.374 161.631 238.109 163.925 230.098 165.516C229.929 165.268 229.748 165.028 229.531 164.811C233.199 161.206 234.391 153.994 232.606 148.552ZM225.38 148.262C226.101 152.367 228.086 156.549 224.965 160.365C223.055 162.701 219.711 163.903 216.781 163.737C216.136 163.7 215.492 163.553 214.849 163.403C215.104 161.301 215.261 159.175 215.352 157.032C215.438 154.996 215.487 152.812 215.477 150.57C218.939 151.642 222.358 150.561 225.38 148.262ZM224.099 140.917C222.879 143.465 219.961 145.642 217.164 145.799C216.71 145.824 216.047 145.802 215.344 145.718C215.117 141.403 214.577 137.052 213.474 133.17C214.989 133.146 216.547 132.762 218.087 131.906C219.475 131.135 220.626 130.033 221.577 128.733C223.482 132.505 225.962 137.025 224.099 140.917ZM60.3209 37.1321C65.9659 27.5061 74.0499 21.2981 83.4659 17.2311C85.3229 21.9541 87.4209 26.5481 88.7359 31.4061C85.9489 32.3901 82.4539 33.3941 80.9229 35.7891C79.4939 38.0251 81.8939 41.4181 84.5149 40.4621C86.4229 39.7661 88.2369 39.1791 89.9569 38.3981C89.9889 38.8611 90.0129 39.3261 90.0239 39.7961C90.1339 44.5051 89.8039 49.3091 89.1629 54.0661C88.1229 53.4621 87.0579 52.8971 85.9229 52.4351C82.6249 51.0911 80.9319 56.0971 83.6409 57.8881C83.6289 57.9041 83.6169 57.9201 83.6049 57.9351C85.1469 58.8011 86.5939 59.8081 88.0359 60.8251C87.6979 62.5341 87.3329 64.2321 86.9269 65.9021C86.0169 69.6411 84.9099 72.3071 82.6039 73.9421C81.7659 70.7871 80.7469 67.2891 77.5989 66.1031C74.8019 65.0491 73.0259 68.4831 74.0729 70.6901C74.6089 71.8211 75.1689 72.9381 75.7899 74.0181C75.9489 74.6941 76.1049 75.3781 76.2149 75.8421C72.1939 76.1511 68.3719 75.4931 64.4189 74.4481C63.8619 74.3011 63.2849 74.1181 62.6899 73.9131C63.0449 71.5391 63.4069 69.1631 63.7199 66.7791C63.7729 66.5751 63.7929 66.3771 63.7999 66.1821C63.8049 66.1441 63.8099 66.1051 63.8149 66.0661H63.7989C63.7719 63.8641 60.9449 62.4061 59.2119 64.1591C57.8099 65.5781 57.9839 67.1381 57.6369 69.0291C57.4739 69.9151 57.2719 70.7911 57.0619 71.6661C54.2559 70.5101 51.3459 69.4001 48.6139 69.0471C50.5069 57.7901 54.6469 46.8071 60.3209 37.1321ZM47.5609 86.2001C47.3709 82.5361 47.4759 78.8471 47.8169 75.1671C49.2019 75.8351 50.5869 76.3831 51.4759 76.8601C52.7909 77.5651 54.1329 78.2191 55.4969 78.8261C54.7879 82.0501 53.9979 85.7581 56.4989 88.0751C58.3299 89.7701 61.1559 88.5341 61.2879 86.0911C61.3759 84.4511 61.5229 82.8161 61.7059 81.1831C63.5859 81.7801 65.4939 82.2891 67.4269 82.6931C70.7569 83.3891 74.3799 83.7631 77.8549 83.4911C78.4599 86.7381 79.3159 90.2121 82.8059 91.2231C84.6159 91.7471 86.5219 90.2881 86.5009 88.4081C86.4769 86.2481 85.3169 84.5711 84.7659 82.5141C84.7129 82.3171 84.6669 82.1181 84.6169 81.9201C87.7549 80.5751 90.4249 78.3141 92.1489 74.7731C93.5359 71.9241 94.5859 68.7811 95.3909 65.5001C97.7139 66.7321 100.361 67.6341 102.332 65.4541C102.893 64.8341 103.288 63.8731 102.972 63.0331C102.021 60.5031 99.2179 59.4781 96.7529 58.4011C97.5739 52.7131 97.8549 46.9191 97.9649 41.7021C98.0099 39.5631 97.8859 37.4701 97.6309 35.4031C98.9959 35.0231 100.373 34.6871 101.811 34.3561C104.788 33.6721 104.963 28.7231 101.811 28.1601C99.9029 27.8191 98.0799 28.0591 96.2979 28.5501C95.9119 27.0871 95.4699 25.6291 94.9769 24.1691C94.0539 21.4391 93.0509 17.6041 91.5659 14.3301C94.8899 13.3471 98.3199 12.5481 101.828 11.9091C119.85 8.63008 137.107 11.7031 152.611 21.3401C159.702 25.7481 165.574 30.6291 171.004 37.0371C174.148 40.7471 177.011 44.7031 179.494 48.8871C180.979 51.3901 182.14 54.0881 183.459 56.6881C173.661 58.3891 163.996 60.6701 154.414 63.5471C117.342 74.6791 82.2429 96.0001 55.6109 124.709C54.6959 120.483 52.9089 116.297 51.7019 112.228C49.2449 103.942 48.0069 94.8031 47.5609 86.2001ZM60.1359 154.206C53.5839 158.709 52.9399 169.72 54.7699 176.71C55.5919 179.851 57.2169 182.628 58.7329 185.43C58.7259 185.431 58.7179 185.432 58.7109 185.433C52.9909 186.162 47.3669 187.177 41.5779 187.582C36.3539 187.947 26.6549 190.447 27.8089 182.338C28.6719 176.272 31.3319 170.244 34.3479 164.976C45.5739 145.365 61.6519 128.925 79.1649 114.789C116.675 84.5131 163.166 64.6721 211.774 63.2071C218.263 63.0121 224.965 63.1471 231.242 64.8621C237.388 66.5411 241.453 69.0821 239.158 76.3181C235.986 86.3181 226.844 92.9311 219.021 99.5091C218.243 98.4581 217.428 97.4431 216.595 96.4701C206.862 85.1041 191.182 81.7681 177.212 85.2551C171.404 84.9441 165.906 85.2151 160.068 87.0041C153.58 88.9921 147.189 91.1531 140.997 93.9361C134.538 96.8391 127.351 98.8131 121.451 102.816C115.759 106.678 110.406 111.013 104.824 115.024C94.2209 122.644 83.2139 129.935 73.6669 138.913C70.4109 141.974 67.2149 145.2 64.3609 148.685C62.8159 150.436 61.3909 152.283 60.1359 154.206ZM68.3739 184.702C66.6509 179.587 62.5429 175.39 62.2789 169.917C62.0079 164.303 63.9319 159.644 66.7459 155.39C67.1599 154.913 67.5779 154.437 68.0279 153.97C72.4859 149.33 77.3589 145.195 82.6339 141.505C87.2259 138.293 91.6449 134.997 96.1119 131.628C96.3829 133.629 96.9909 135.533 97.3169 137.56C97.8529 140.896 97.5929 144.609 97.2199 147.97C96.4829 154.601 92.4679 160.503 89.8959 166.54C87.7369 171.608 86.3179 176.845 86.2099 182.375C86.0979 188.115 89.4519 200.342 81.7179 202.143C79.4139 202.68 77.4309 202.119 75.7569 200.919C74.8959 200.03 74.0529 199.128 73.3569 198.145C70.4939 194.098 70.6749 189.08 68.3739 184.702ZM36.5059 262.487C36.4079 262.582 36.3209 262.689 36.2249 262.787C32.1979 260.841 27.4669 259.609 24.8879 256.252C20.9119 251.075 30.7829 252.752 33.3779 250.147C36.4969 247.016 34.2699 243.909 32.3979 240.972C30.7799 238.435 28.9179 234.301 32.8389 233.888C35.2999 233.629 37.7839 235.515 40.3119 235.599C43.3099 235.698 45.0319 232.754 44.5039 230.097C43.8279 226.702 41.0939 220.371 46.9999 222.459C50.0269 223.529 51.9979 226.145 54.8209 227.474C56.3489 228.193 58.5639 228.293 59.7739 226.835C62.4199 223.645 61.0729 219.795 62.0949 215.951C62.6099 214.012 62.3639 213.922 64.1149 213.649C65.3009 213.464 66.9739 214.432 68.0429 214.86C69.6119 215.488 71.0969 216.213 72.6779 216.726C73.3899 218.04 74.1459 219.334 74.1339 220.399C74.1109 222.495 70.7659 225.18 69.3949 226.704C67.6209 228.676 65.7099 230.48 64.0749 232.591C58.3129 240.033 54.9959 249.826 54.9749 259.352C48.5029 258.238 41.2279 257.901 36.5059 262.487ZM479.8 307.898C479.368 317.802 478.173 327.731 478.176 337.645C478.18 348.011 479.303 357.873 477.956 368.222C476.879 376.495 477.219 388.406 472.664 395.679C470.098 399.777 465.531 402.995 462.233 406.524C458.971 410.015 456.037 413.885 452.544 417.145C448.368 421.043 441.683 426.75 446.962 432.737C451.527 437.914 461.233 437.472 467.404 438.263C470.664 438.681 479.011 438.147 481.149 440.503C482.398 441.881 481.106 445.469 480.947 446.929C480.646 449.694 480.571 452.331 480.042 455.09C478.354 463.869 476.865 472.399 475.861 481.288C475.372 485.616 475.298 490.677 472.973 494.491C470.321 498.84 465.472 498.692 460.898 498.221C456.603 497.779 452.384 496.724 448.067 496.418C442.691 496.036 437.261 496.55 431.878 496.469C421.39 496.312 410.969 494.49 400.522 493.661C390.18 492.84 379.799 492.464 369.424 492.615C358.611 492.772 348.316 492.582 337.592 491.102C327.753 489.744 317.881 489.94 308.024 491.046C287.276 493.373 266.683 491.695 245.909 490.675C235.214 490.15 224.615 490.207 213.956 491.312C203.799 492.364 193.741 494.284 183.538 494.864C162.744 496.047 141.926 494.694 121.18 493.342C110.413 492.641 99.6999 492.889 88.9319 492.543C79.2439 492.231 69.3739 491.875 59.7139 492.644C56.3469 492.912 48.3169 493.97 46.5549 490.164C45.8279 488.595 46.1449 485.379 45.9619 483.609C45.7019 481.102 45.6089 478.6 45.4559 476.087C44.8779 466.565 48.4739 457.088 48.7129 447.546C48.9489 438.145 44.2179 429.27 44.7619 419.779C45.0269 415.149 46.0569 410.644 45.6139 405.99C45.1589 401.207 43.8559 396.576 43.2219 391.829C41.8709 381.71 43.4629 371.652 42.3019 361.523C41.2149 352.042 44.6009 343.863 45.9419 334.652C47.1829 326.136 43.4069 317.462 41.7179 309.164C39.7299 299.393 37.9079 289.443 40.4679 279.585C41.4809 275.684 42.6219 270.975 46.5159 269.656C49.6609 268.59 53.0339 268.513 56.3419 268.589C56.6999 269.059 57.1589 269.371 57.6779 269.509C58.7299 273.67 60.4509 277.684 62.9279 281.411C65.2329 284.88 68.8159 290.261 73.6999 289.498C74.0129 291.685 74.5259 293.804 74.7309 294.283C75.9379 297.087 78.3099 299.435 81.5729 299.24C83.2589 299.14 84.7189 298.313 85.9059 297.081C88.3909 300.59 92.3869 303.349 95.9969 304.911C102.967 307.926 111.355 307.036 117.907 303.321C121.574 301.242 124.975 298.389 128.207 295.338C132.582 291.693 136.452 287.49 140.431 283.417C144.622 279.606 149.152 275.967 153.893 272.814C158.032 271.875 162.517 270.276 166.592 270.151C176.225 269.856 186.446 271.49 196.211 271.796C210.015 272.229 223.857 271.74 237.574 272.083C246.945 272.38 256.201 273.273 265.598 273.171C287.249 272.937 308.883 275.171 330.521 274.496C340.672 274.179 350.698 272.784 360.819 272.221C371.17 271.646 381.702 272.681 392.04 273.224C402.763 273.788 413.231 273.075 423.926 272.419C433.822 271.812 443.724 272.589 453.629 272.561C458.98 272.546 464.259 273.019 469.557 273.751C471.647 274.04 474.568 273.98 476.505 274.798C478.725 275.735 478.521 276.437 478.839 279.246C479.901 288.636 480.211 298.461 479.8 307.898ZM488.165 247.49C487.451 248.783 485.167 250.114 483.987 250.911C478.079 254.895 471.029 257.096 465.502 261.58C457.709 261.162 449.942 261.173 442.092 260.716C441.304 260.67 440.52 260.646 439.734 260.614C440.602 258.383 441.264 256.028 442 253.774C444.239 246.916 446.588 239.976 447.246 232.748C447.503 229.927 447.593 227.058 447.57 224.179C448.061 223.882 448.562 223.551 449.088 223.152C452.616 220.479 456.056 218.268 460.318 216.951C461.401 216.616 463.381 215.749 464.497 215.927C466.226 216.205 465.243 216.545 464.372 218.161C462.972 220.757 461.84 222.855 461.569 225.787C461.254 229.18 465.419 230.969 468.051 229.507C471.126 227.799 478.297 222.484 482.074 224.405C486.516 226.664 479.177 233.049 477.445 235.569C476.28 237.264 476.842 239.698 478.159 241.103C480.189 243.271 482.206 243.145 484.9 243.848C487.379 244.498 489.718 244.676 488.165 247.49Z" fill="white"/>
<path d="M189.365 299.807C185.861 296.204 179.234 295.967 174.529 295.766C168.362 295.503 161.962 295.442 155.824 296.039C151.302 296.478 144.989 295.828 140.846 297.987C137.828 299.56 136.904 302.837 136.763 306.012C136.642 308.748 136.825 311.483 136.947 314.216C137.055 316.641 136.663 318.757 136.529 321.147C136.225 326.6 136.112 332.061 136.043 337.521C135.96 344.022 135.853 350.52 135.702 357.019C135.599 361.45 134.048 368.262 135.895 372.424C137.312 375.617 140.712 375.917 143.821 376.19C148.261 376.58 155.89 376.46 159.993 374.485C162.972 373.053 165.01 369.968 165.252 366.737C165.463 363.91 164.869 360.736 164.478 357.924C164.344 356.962 164.188 356.002 164.009 355.047C163.4 351.798 162.832 352.65 165.191 352.136C168.891 351.329 173.782 352.822 176.958 350.218C180.455 347.352 179.163 341.398 179.153 337.437C179.144 333.893 179.372 329.153 175.927 326.977C174.456 326.048 172.577 325.91 170.892 325.842C169.3 325.778 167.706 326.408 166.117 326.57C165.554 326.571 165.02 326.531 164.57 326.388C164.324 326.31 164.151 326.267 164.005 326.234C162.882 325.398 163.041 323.339 163.745 321.876C164.589 320.123 171.636 320.919 173.347 321.05C177.576 321.375 183.922 322.649 187.872 320.517C193.541 317.457 193.446 304.003 189.365 299.807Z" fill="white"/>
<path d="M242.545 301.2C239.816 299.505 235.251 299.652 232.224 299.069C228.995 298.447 225.901 297.936 222.598 297.858C216.252 297.707 209.057 296.695 202.795 298.038C197.537 299.165 196.677 305.241 196.957 309.873C196.967 310.034 196.994 310.179 197.023 310.323C196.627 313.744 196.569 317.242 196.374 320.6C195.923 328.373 195.721 336.411 196.072 344.188C196.37 350.779 196.314 357.347 196.224 363.95C196.159 368.677 196.197 372.525 200.88 374.729C206.145 377.206 212.842 376.222 218.467 376.055C222.894 375.923 231.111 376.691 235.061 374.061C238.455 371.801 238.441 366.043 238.828 362.392C239.191 358.964 239.209 355.387 235.575 354.005C231.69 352.527 227.285 354.173 223.473 352.966C220.881 352.146 219.828 347.329 221.779 345.414C223.081 344.138 225.643 344.772 227.237 344.897C229.9 345.105 232.776 344.983 234.606 342.748C237.194 339.589 236.766 332.256 236.75 328.638C236.735 325.102 234.876 323.272 231.345 322.975C229.063 322.783 226.454 322.998 224.196 323.329C222.389 323.595 221.243 324.589 219.767 323.017C219.51 322.743 219.231 320.345 219.422 319.921C219.752 319.189 220.281 319.07 221.028 318.898C222.526 318.553 224.146 319.107 225.628 318.953C228.849 318.618 231.686 318.542 234.942 318.709C239.006 318.918 242.14 318.163 243.75 314.296C245.247 310.698 246.674 303.764 242.545 301.2Z" fill="white"/>
<path d="M288.805 325.942C291.374 329.16 294.275 330.12 298.547 329.481C308.816 327.943 307.251 314.231 302.723 307.627C295.192 296.645 282.269 294.393 270.221 298.678C269.981 298.763 269.778 298.878 269.592 299.004C268.589 299.277 267.559 299.643 266.483 300.123C261.499 302.344 257.334 306.843 255.215 311.848C251.425 320.799 250.832 334.153 260.863 339.107C264.774 341.039 271.062 340.364 274.914 342.902C276.034 344.143 277.054 345.56 277.754 347.026C278.1 349.762 276.806 354.363 273.437 353.986C270.286 353.633 271.292 352.208 270.389 350.733C269.247 348.868 268.814 347.504 266.769 346.483C263.363 344.781 258.565 346.126 255.452 347.856C251.661 349.962 251.185 353.5 251.518 357.607C252.527 370.046 260.903 375.297 272.431 377.199C282.931 378.93 294.85 374.883 299.148 364.502C301.266 359.386 301.16 352.846 300.219 347.471C299.071 340.915 296.016 338.008 291.206 333.747C288.957 331.755 286.823 329.622 284.793 327.413C283.408 325.907 281.419 324.591 283.083 322.288C285.517 318.919 287.844 324.737 288.805 325.942Z" fill="white"/>
<path d="M357.655 325.78C362.052 321.504 361.691 310.133 357.848 305.725C354.09 301.414 347.605 300.236 342.181 299.965C339.236 299.818 336.562 300.149 333.709 300.613C329.791 301.25 325.765 301.179 321.827 301.892C318.753 302.449 316.616 302.517 314.994 305.514C312.667 309.814 313.166 315.722 314.275 320.308C314.898 322.881 315.831 324.967 318.506 325.841C319.812 326.268 321.22 325.776 322.469 326.079C323.005 326.209 324.241 326.053 324.668 326.529C325.449 327.4 324.948 330.634 324.857 331.836C324.041 342.593 323.217 353.594 323.251 364.389C323.273 371.423 324.087 376.94 332.189 377.464C338.705 377.886 347.855 378.345 349.282 370.409C350.936 361.213 348.759 350.673 348.286 341.382C348.138 338.472 346.54 330.555 348.577 328.632C350.735 326.594 355.121 328.244 357.655 325.78Z" fill="white"/>
<path d="M409.62 363.037C408.751 360.289 408.535 357.457 408.043 354.635C406.223 344.2 405.219 333.279 402.538 323.027C401.334 318.426 399.466 314.106 398.057 309.579C397.146 306.653 396.733 303.433 393.722 301.968C390.24 300.274 385.467 301.724 381.792 301.987C378.455 302.226 375.87 302.059 373.706 305.004C370.944 308.762 369.598 314.792 368.425 319.238C366.982 324.707 365.397 330.086 363.827 335.526C362.061 341.641 360.211 347.714 358.92 353.953C357.763 359.546 356.98 365.089 356.246 370.728C355.67 375.149 360.919 375.913 364.376 376.093C367.913 376.276 371.688 375.699 375.249 375.562C378.365 375.441 380.558 374.748 381.715 371.626C382.959 368.268 381.326 362.297 384.999 360.277C390.672 357.158 390.539 366.462 391.694 369.522C393.954 375.508 401.18 376.082 406.559 373.756C408.96 372.718 410.912 371.355 411.077 368.558C411.193 366.606 410.194 364.853 409.62 363.037ZM386.986 342.807C386.612 343.469 386.191 343.278 385.19 343.3C384.497 343.315 383.776 343.339 383.086 343.303C382.503 343.273 382.13 343.277 381.89 343.295C381.906 343.258 381.913 343.216 381.902 343.159C381.576 341.558 382.396 339.259 382.799 337.682C383.172 336.224 383.518 333.134 384.628 332.074C386.272 330.506 386.334 333.721 386.471 334.642C386.757 336.551 386.958 338.373 386.953 340.304C386.952 340.895 387.238 342.36 386.986 342.807Z" fill="white"/>
<path d="M144.065 392.965C143.278 383.53 132.432 383.441 124.986 384.802C121.785 385.387 119.788 387.012 119.194 390.336C118.242 395.671 119.349 402.631 120.372 407.895C120.42 408.141 120.513 408.357 120.626 408.557C120.598 414.099 120.863 419.961 119.681 425.182C118.844 428.88 113.398 438.472 112.199 429.609C111.758 426.345 113.124 422.197 109.828 420.034C106.91 418.119 101.345 419.533 98.1489 420.068C94.7969 420.628 91.5809 421.545 90.7029 425.189C89.8409 428.761 90.7979 433.844 91.1429 437.415C91.6099 442.267 92.9289 446.954 95.3909 451.181C104.062 466.064 128.149 468.4 137.919 453.422C143.316 445.148 144.136 434.281 144.469 424.725C144.836 414.218 144.937 403.427 144.065 392.965Z" fill="white"/>
<path d="M200.878 391.342C197.124 388.413 192.263 389.829 188.055 390.624C176.829 392.745 179.543 407.914 179.689 416.495C179.742 419.617 179.832 422.732 179.787 425.855C179.758 427.822 179.989 435.312 177.35 435.912C170.775 437.409 174.205 417.638 174.338 415.039C174.644 409.07 174.708 402.514 173.738 396.605C172.897 391.485 171.479 389.268 166.563 387.443C162.475 385.926 156.349 385.872 152.865 389.125C149.52 392.248 151.457 398.478 151.274 402.54C149.804 411.034 149.573 420.107 149.912 428.114C150.395 439.571 149.867 450.617 159.466 458.389C166.841 464.36 177.127 466.095 186.186 463.427C190.451 462.171 195.836 459.804 198.68 456.314C200.956 453.52 201.8 449.9 202.298 446.284C202.911 444.604 203.16 442.692 202.966 440.494C204.292 428.375 203.184 416.047 204.073 403.876C204.379 399.655 204.596 394.243 200.878 391.342Z" fill="white"/>
<path d="M273.469 399.692C273.237 393.396 272.76 388.463 265.477 388.028C259.8 387.689 252.973 387.908 250.122 393.603C248.167 397.507 247.503 402.34 246.983 407.128C245.331 404.046 244.001 400.761 242.549 397.591C240.015 392.056 237.297 388.798 231.096 387.906C226.338 387.222 218.133 386.638 214.834 390.952C211.065 395.881 212.179 404.541 212.832 410.403C212.613 411.737 212.409 413.071 212.253 414.404C211.541 420.503 210.756 426.605 210.46 432.742C210.157 439.006 209.693 445.232 209.694 451.51C209.694 455.502 209.596 460.038 213.387 462.294C218.393 465.274 231.788 466.643 235.458 460.788C237.34 457.785 236.958 452.087 236.948 448.703C236.938 445.724 236.761 442.775 237.034 439.801C237.038 439.762 237.04 439.709 237.044 439.668C237.53 441.566 237.932 443.377 238.345 444.471C239.923 448.659 241.152 452.958 242.741 457.14C245.133 463.433 248.045 467.235 255.187 465.916C258.729 465.262 262.528 465.105 265.737 463.266C268.841 461.487 269.169 459.063 269.641 455.616C270.896 446.452 271.347 436.966 272.124 427.736C272.904 418.479 273.808 408.988 273.469 399.692Z" fill="white"/>
<path d="M303.519 408.714C303.054 401.114 304.902 392.694 296.496 388.945C291.844 386.871 282.691 387.027 280.863 392.866C279.696 396.594 280.132 401.943 280.061 405.825C280.04 407.014 280.021 408.204 280.015 409.392C279.971 409.759 279.923 410.126 279.887 410.493C279.339 416.107 279.176 421.719 278.672 427.337C278.145 433.22 277.839 439.13 277.799 445.037C277.774 448.747 277.453 453.63 279.301 457.015C282.431 462.748 294.012 463.071 299.111 460.414C301.448 459.197 302.281 457.332 302.786 454.821C303.749 450.029 304.103 444.661 304.244 439.766C304.54 429.457 304.149 418.998 303.519 408.714Z" fill="white"/>
<path d="M363.808 409.835C363.775 400.681 365.239 388.237 352.504 388.399C347.991 388.456 345.233 390.717 343.485 394.766C342.303 397.505 341.513 400.606 340.889 403.764C340.776 403.43 340.662 403.101 340.551 402.759C339.571 399.764 338.414 396.756 336.945 393.959C334.415 389.139 330.891 386.132 325.305 385.912C320.633 385.728 314.711 384.736 311.507 388.86C308.454 392.789 309.612 398.714 310.514 403.894C309.796 411.705 309.971 419.768 309.548 427.449C309.202 433.736 308.601 440.269 308.782 446.559C308.917 451.287 307.884 457.286 309.557 461.778C311.965 468.242 324.978 468.337 329.335 463.884C332.033 461.126 331.468 456.745 331.346 453.292C331.142 447.539 331.156 441.377 331.541 435.637C331.545 435.575 331.558 435.477 331.574 435.37C331.718 436.375 331.875 437.212 331.883 437.241C333.395 442.879 335.458 448.349 337.156 453.938C338.151 457.214 338.418 461.457 340.882 464.069C343.925 467.294 347.903 466.017 351.711 465.455C354.886 464.986 358.437 465.228 360.662 462.537C363.574 459.015 363.042 452.107 363.326 447.857C364.174 435.209 363.852 422.507 363.808 409.835Z" fill="white"/>
<path d="M424.457 439.212C421.412 427.241 418.112 415.335 414.099 403.629C411.544 396.176 410.305 385.939 401.038 384.796C393.717 383.893 383.488 383.836 378.44 390.175C375.139 394.321 374.859 398.696 374.352 403.805C373.707 410.287 372.854 416.731 372.018 423.192C370.721 433.201 367.33 443.951 367.483 454.277C367.192 456.251 367.231 458.103 367.911 459.615C367.934 459.765 367.946 459.916 367.971 460.065C368.058 460.586 368.404 460.89 368.821 461.008C369.915 462.212 371.685 463.042 374.421 463.298C377.966 463.631 382.366 463.791 385.806 462.729C390.036 461.424 390.057 457.666 390.776 453.648C391.629 448.876 391.483 441.37 398.36 442.493C403.221 443.287 401.887 452.303 402.43 456.064C403.748 465.198 413.444 461.214 419.51 458.941C428.981 455.393 426.556 447.471 424.457 439.212ZM398.569 422.418C398.336 424.582 395.855 425.426 393.731 424.721C392.472 424.303 392.791 424.599 392.587 423.214C392.424 422.113 392.717 420.715 392.87 419.629C393.137 417.735 393.815 415.933 394.188 414.063C394.467 412.666 394.43 410.557 395.803 409.748C397.829 413.088 398.989 418.531 398.569 422.418Z" fill="white"/>
<path d="M166.87 133.833C163.105 128.325 155.784 126.963 149.83 129.353C145.832 130.958 137.637 135.969 140.916 141.264C141.086 141.538 141.378 141.633 141.683 141.576C147.186 140.547 155.401 130.729 160.565 138.128C163.245 141.967 160.536 146.294 156.609 147.633C153.237 148.784 149.461 148.024 146.871 150.923C145.859 152.056 145.774 153.729 146.871 154.859C151.134 159.249 161.301 155.23 165.025 151.511C169.74 146.802 170.664 139.382 166.87 133.833Z" fill="white"/>
<path d="M133.834 153.946C132.534 152.6 131.958 150.609 130.817 149.108C129.625 147.539 128.132 146.318 126.349 145.476C122.133 143.488 116.882 144.884 113.283 147.597C109.575 150.393 108.648 155.025 109.786 159.366C110.645 162.648 112.974 167.994 117.176 167.469C118.733 167.274 119.74 166.148 119.415 164.53C118.629 160.624 114.834 154.678 119.753 152.132C125.375 149.223 125.966 157.252 129.343 159.768C132.803 162.346 136.663 156.876 133.834 153.946Z" fill="white"/>
<path d="M183.679 114.017C180.076 111.485 175.575 112.029 171.779 113.855C167.804 115.768 165.186 118.817 165.698 123.394C166.085 126.845 167.722 133.447 171.672 134.348C172.675 134.577 173.821 134.047 174.077 132.983C174.981 129.225 170.798 123.035 174.726 120.793C177.032 119.477 178.94 119.215 180.721 121.394C182.3 123.326 182.869 125.774 184.536 127.619C186.215 129.477 188.819 128.243 189.603 126.281C191.28 122.086 187.028 116.37 183.679 114.017Z" fill="white"/>
<path d="M190.606 147.178C190.053 146.054 189.29 145.419 188.391 145.145C184.453 143.944 177.926 149.696 175.192 151.676C170.922 154.769 166.69 157.941 162.083 160.525C154.198 164.948 145.726 168.807 137.095 171.458C132.582 172.845 122.24 173.918 124.701 180.725C126.842 186.649 134.342 192.576 139.857 195.013C153.874 201.207 174.19 195.828 183.987 184.191C188.86 178.402 191.867 171.373 192.246 163.77C192.508 158.505 193.006 152.055 190.606 147.178ZM135.521 185.218C135.109 184.86 134.703 184.49 134.306 184.1C133.127 182.941 132.145 181.601 131.019 180.422C130.629 180.014 130.38 179.708 130.223 179.483C132.828 178.133 136.835 177.757 139.526 177.004C141.156 176.548 142.778 176.02 144.388 175.445C145.09 177.146 145.904 178.796 146.493 180.55C146.759 181.341 147.021 182.169 147.365 182.942C143.465 183.792 139.529 184.513 135.521 185.218ZM186.599 163.019C184.409 164.649 182.661 166.928 180.581 168.713C175.825 172.796 170.184 175.612 164.384 177.914C161.503 179.057 158.625 180.002 155.74 180.835C155.248 180.094 154.769 179.371 154.407 178.672C153.332 176.602 152.535 174.484 151.313 172.635C152.894 171.923 154.456 171.179 155.987 170.408C161.592 167.585 167.201 164.718 172.432 161.235C175.111 159.451 177.694 157.51 180.072 155.336C181.65 153.893 183.768 149.755 185.68 152.493C186.423 153.557 187.476 162.366 186.599 163.019Z" fill="white"/>
</g>
<defs>
<clipPath id="clip0">
<rect width="511.999" height="511.999" fill="white"/>
</clipPath>
</defs>
</svg>
