<svg width="100" height="100" viewBox="0 0 100 100" fill="none" xmlns="http://www.w3.org/2000/svg">
<path d="M69.2722 35.3152H64.8359C64.565 34.4554 64.2205 33.623 63.8047 32.8244L66.9414 29.6874C67.3334 29.2955 67.5492 28.7742 67.5492 28.2197C67.5492 27.665 67.3334 27.1437 66.9414 26.7517L63.2498 23.0599C62.4404 22.2511 61.1236 22.2507 60.314 23.0601L57.1771 26.197C56.3785 25.7812 55.5459 25.4365 54.6863 25.1658V20.7293C54.6861 19.5847 53.7549 18.6533 52.6101 18.6533H47.3893C46.2447 18.6533 45.3135 19.5845 45.3135 20.7293V25.1658C44.4537 25.4367 43.6213 25.7812 42.8225 26.197L39.6854 23.0599C38.876 22.2509 37.5592 22.2511 36.7498 23.0601L33.0584 26.7515C32.6662 27.1435 32.4502 27.6648 32.4502 28.2195C32.4502 28.774 32.6662 29.2953 33.0582 29.6873L36.1951 32.8242C35.7793 33.6228 35.4346 34.4554 35.1639 35.315H30.7274C29.5829 35.315 28.6516 36.2462 28.6516 37.3909V42.6118C28.6516 43.7564 29.5829 44.6876 30.7274 44.6876H35.1639C35.4348 45.5472 35.7793 46.38 36.1951 47.1784L33.0582 50.3153C32.2489 51.1247 32.2489 52.4417 33.0582 53.2511L36.7498 56.9427C37.5592 57.7522 38.8764 57.752 39.6856 56.9427L42.8225 53.8058C43.6211 54.2216 44.4539 54.5663 45.3135 54.837V59.2735C45.3135 60.418 46.2447 61.3493 47.3893 61.3493H52.6101C53.7547 61.3493 54.6861 60.418 54.6861 59.2735V54.837C55.5455 54.5663 56.3783 54.2216 57.1769 53.8058L60.3138 56.9427C61.1234 57.7522 62.4404 57.752 63.2498 56.9427L66.9412 53.2511C67.3332 52.8591 67.549 52.3378 67.549 51.7833C67.549 51.2288 67.3332 50.7075 66.9412 50.3153L63.8043 47.1784C64.2201 46.3798 64.5648 45.5472 64.8355 44.6876H69.272C70.4166 44.6876 71.348 43.7564 71.348 42.6118V37.3909C71.3482 36.2464 70.4167 35.3152 69.2722 35.3152ZM68.4187 41.7579H63.7197C63.0392 41.7579 62.4484 42.2265 62.2933 42.8892C61.981 44.2241 61.4568 45.4903 60.7351 46.6523C60.376 47.2304 60.4625 47.9796 60.9435 48.461L64.266 51.7835L61.782 54.2675L58.4595 50.945C57.9783 50.4638 57.2291 50.3771 56.6506 50.7364C55.4885 51.4581 54.2223 51.9823 52.8877 52.2948C52.225 52.4497 51.7564 53.0405 51.7564 53.7212V58.4204H48.2438V53.7212C48.2438 53.0407 47.7752 52.4499 47.1125 52.2948C45.7779 51.9827 44.5117 51.4585 43.3494 50.7364C42.7715 50.3778 42.0221 50.4638 41.5406 50.945L38.2182 54.2675L35.7342 51.7835L39.0567 48.461C39.5379 47.9798 39.6242 47.2306 39.2653 46.6523C38.5436 45.4902 38.0194 44.2239 37.7071 42.8892C37.5522 42.2265 36.9612 41.7579 36.2807 41.7579H31.5817V38.2452H36.2807C36.9612 38.2452 37.552 37.7767 37.7071 37.114C38.0194 35.7792 38.5436 34.513 39.2653 33.3509C39.6242 32.7728 39.5379 32.0236 39.0567 31.5421L35.7342 28.2197L38.2182 25.7357L41.5406 29.0582C42.0215 29.5394 42.7711 29.6259 43.3494 29.2667C44.5113 28.5451 45.7775 28.0208 47.1125 27.7085C47.7752 27.5537 48.2438 26.9628 48.2438 26.2822V21.583H51.7564V26.2822C51.7564 26.9626 52.225 27.5535 52.8877 27.7085C54.2225 28.0208 55.4885 28.5451 56.6508 29.2667C57.2285 29.6255 57.9781 29.539 58.4595 29.0582L61.782 25.7357L64.266 28.2197L60.9435 31.5421C60.4623 32.0234 60.376 32.7726 60.7351 33.3509C61.4566 34.5126 61.9808 35.7788 62.2933 37.114C62.4484 37.7767 63.039 38.2452 63.7197 38.2452H68.4187V41.7579Z" fill="#262262"/>
<path d="M49.9997 32.1539C45.6724 32.1539 42.1521 35.6744 42.1521 40.0015C42.1521 44.3286 45.6726 47.8492 49.9997 47.8492C54.3269 47.8492 57.8474 44.3286 57.8474 40.0015C57.8474 35.6744 54.3271 32.1539 49.9997 32.1539ZM49.9997 44.9195C47.288 44.9195 45.0818 42.7132 45.0818 40.0015C45.0818 37.2898 47.288 35.0836 49.9997 35.0836C52.7115 35.0836 54.9177 37.2898 54.9177 40.0015C54.9177 42.7132 52.7115 44.9195 49.9997 44.9195Z" fill="#262262"/>
<path d="M16.3231 38.5367H11.4634C10.6544 38.5367 9.99854 39.1925 9.99854 40.0015C9.99854 40.8105 10.6544 41.4663 11.4634 41.4663H16.3231C17.1321 41.4663 17.788 40.8105 17.788 40.0015C17.788 39.1925 17.1321 38.5367 16.3231 38.5367Z" fill="#262262"/>
<path d="M88.5368 38.5367H83.677C82.8678 38.5367 82.2122 39.1925 82.2122 40.0015C82.2122 40.8105 82.8678 41.4663 83.677 41.4663H88.5368C89.3459 41.4663 90.0016 40.8105 90.0016 40.0015C90.0016 39.1925 89.3457 38.5367 88.5368 38.5367Z" fill="#262262"/>
<path d="M27.2224 62.779C26.6506 62.2069 25.723 62.2069 25.1508 62.779L21.7145 66.2153C21.1424 66.7874 21.1424 67.7149 21.7145 68.287C22.2865 68.859 23.2141 68.859 23.7861 68.287L27.2224 64.8506C27.7945 64.2786 27.7945 63.351 27.2224 62.779Z" fill="#262262"/>
<path d="M78.2854 11.7164C77.7131 11.1443 76.7858 11.1443 76.2135 11.7164L72.7772 15.1527C72.2051 15.7248 72.2051 16.6523 72.7772 17.2244C73.3495 17.7964 74.2768 17.7962 74.8491 17.2244L78.2854 13.7881C78.8575 13.2158 78.8575 12.2882 78.2854 11.7164Z" fill="#262262"/>
<path d="M50.0002 0C49.1911 0 48.5354 0.655858 48.5354 1.46484V6.3246C48.5354 7.13358 49.1911 7.78944 50.0002 7.78944C50.8094 7.78944 51.4651 7.13358 51.4651 6.3246V1.46484C51.4651 0.655858 50.8094 0 50.0002 0Z" fill="#262262"/>
<path d="M78.2854 66.2153L74.8491 62.779C74.2768 62.2069 73.3495 62.2069 72.7772 62.779C72.2051 63.351 72.2051 64.2788 72.7772 64.8506L76.2135 68.287C76.7858 68.859 77.7131 68.859 78.2854 68.287C78.8575 67.7149 78.8575 66.7874 78.2854 66.2153Z" fill="#262262"/>
<path d="M27.2224 15.1527L23.7861 11.7164C23.2141 11.1443 22.2865 11.1443 21.7145 11.7164C21.1424 12.2884 21.1424 13.216 21.7145 13.7881L25.1508 17.2244C25.7228 17.7964 26.6504 17.7964 27.2224 17.2244C27.7945 16.6521 27.7945 15.7246 27.2224 15.1527Z" fill="#262262"/>
<path d="M79.2243 36.413C77.6479 22.9609 66.9845 12.2965 53.5954 10.6644C52.7937 10.5658 52.0618 11.1383 51.9638 11.9412C51.8659 12.7443 52.4376 13.4748 53.2407 13.5728C65.4003 15.0549 74.8886 24.5875 76.3141 36.754C76.4015 37.4995 77.0345 38.0484 77.7671 38.0484C77.8241 38.0484 77.8815 38.045 77.9395 38.0384C78.7434 37.9445 79.3184 37.2167 79.2243 36.413Z" fill="#262262"/>
<path d="M77.9223 41.9663C77.1184 41.864 76.3865 42.4329 76.285 43.2357C75.2863 51.1239 70.834 58.0843 64.0695 62.3313C61.1533 64.1624 59.4125 67.296 59.4125 70.7135V76.7422H40.5878V70.5801C40.5878 67.2708 38.8583 64.1442 36.0745 62.421C28.2022 57.5479 23.5022 49.1189 23.502 39.873C23.502 26.523 33.5016 15.2172 46.762 13.5746C47.5649 13.4752 48.135 12.7435 48.0356 11.9406C47.9362 11.1379 47.2049 10.5662 46.4016 10.667C31.7503 12.482 20.5716 25.0816 20.5718 39.873C20.5718 44.9771 21.8993 50.006 24.4112 54.4161C26.8462 58.6915 30.346 62.3208 34.5319 64.912C36.4598 66.1053 37.6573 68.2772 37.6573 70.5799V76.9555C36.1678 77.4731 35.0938 78.8875 35.0938 80.551V82.6393C35.0938 83.5235 35.3993 84.3362 35.9065 84.9832C35.3991 85.6303 35.0938 86.4428 35.0938 87.3272V89.4153C35.0938 91.5154 36.8026 93.224 38.9026 93.224H43.5081V96.5356C43.5081 98.4459 45.0622 100 46.9723 100H53.0264C54.9368 100 56.4907 98.4459 56.4907 96.5356V93.224H61.0961C63.1963 93.224 64.9049 91.5153 64.9049 89.4153V87.3272C64.9049 86.443 64.5994 85.6303 64.092 84.9832C64.5994 84.3362 64.9049 83.5237 64.9049 82.6393V80.551C64.9049 78.8873 63.8311 77.4731 62.3414 76.9555V70.7133C62.3414 68.31 63.5694 66.1042 65.6266 64.8126C73.1371 60.097 78.0812 52.3665 79.1904 43.6036C79.293 42.8009 78.7248 42.0679 77.9223 41.9663ZM53.5614 96.5354C53.5614 96.825 53.3166 97.0699 53.027 97.0699H46.9729C46.6833 97.0699 46.4385 96.8252 46.4385 96.5354V93.2238H53.5614V96.5354ZM61.9758 89.4151C61.9758 89.8914 61.5733 90.294 61.0969 90.294C58.511 90.294 41.3434 90.294 38.9032 90.294C38.4268 90.294 38.0243 89.8914 38.0243 89.4151V87.327C38.0243 86.8506 38.4268 86.4481 38.9032 86.4481H61.0969C61.5733 86.4481 61.9758 86.8506 61.9758 87.327V89.4151ZM61.9758 82.6391C61.9758 83.1155 61.5733 83.518 61.0969 83.518H38.9032C38.4268 83.518 38.0243 83.1155 38.0243 82.6391V80.5508C38.0243 80.0745 38.4268 79.6719 38.9032 79.6719H61.0969C61.5733 79.6719 61.9758 80.0745 61.9758 80.5508V82.6391Z" fill="#262262"/>
</svg>
