<svg width="48" height="52" viewBox="0 0 48 52" fill="none" xmlns="http://www.w3.org/2000/svg">
<path d="M24 15.7984C27.2041 15.7984 27.5837 15.8113 28.849 15.8721C30.019 15.9283 30.6544 16.1342 31.0773 16.3072C31.6374 16.5365 32.0371 16.8104 32.457 17.2526C32.877 17.6949 33.137 18.1159 33.3547 18.7058C33.519 19.1512 33.7145 19.8203 33.7679 21.0526C33.8256 22.3852 33.8378 22.7849 33.8378 26.1595C33.8378 29.534 33.8256 29.9338 33.7679 31.2664C33.7145 32.4986 33.519 33.1678 33.3547 33.6132C33.137 34.2031 32.877 34.6241 32.4571 35.0663C32.0371 35.5086 31.6374 35.7825 31.0773 36.0117C30.6544 36.1848 30.019 36.3907 28.849 36.4469C27.5839 36.5077 27.2044 36.5206 24 36.5206C20.7956 36.5206 20.4162 36.5077 19.151 36.4469C17.981 36.3907 17.3456 36.1848 16.9227 36.0117C16.3626 35.7825 15.9629 35.5086 15.543 35.0663C15.1231 34.6241 14.863 34.2031 14.6453 33.6132C14.481 33.1678 14.2855 32.4986 14.2321 31.2664C14.1744 29.9338 14.1622 29.534 14.1622 26.1595C14.1622 22.7849 14.1744 22.3852 14.2321 21.0526C14.2855 19.8203 14.481 19.1512 14.6453 18.7058C14.863 18.1159 15.123 17.6949 15.543 17.2527C15.9629 16.8104 16.3626 16.5365 16.9227 16.3072C17.3456 16.1342 17.981 15.9283 19.151 15.8721C20.4163 15.8113 20.7959 15.7984 24 15.7984ZM24 13.5212C20.741 13.5212 20.3323 13.5358 19.0524 13.5973C17.7752 13.6586 16.9028 13.8723 16.1395 14.1847C15.3504 14.5077 14.6812 14.9398 14.0141 15.6424C13.3469 16.3451 12.9366 17.0499 12.63 17.881C12.3333 18.6848 12.1305 19.6036 12.0722 20.9488C12.0138 22.2968 12 22.7271 12 26.1595C12 29.5918 12.0138 30.0222 12.0722 31.3702C12.1305 32.7154 12.3333 33.6341 12.63 34.438C12.9366 35.2691 13.3469 35.9739 14.0141 36.6766C14.6812 37.3792 15.3504 37.8113 16.1395 38.1342C16.9028 38.4467 17.7752 38.6603 19.0524 38.7217C20.3323 38.7832 20.741 38.7977 24 38.7977C27.259 38.7977 27.6677 38.7832 28.9476 38.7217C30.2248 38.6603 31.0972 38.4467 31.8605 38.1342C32.6496 37.8113 33.3188 37.3792 33.9859 36.6766C34.653 35.9739 35.0634 35.2691 35.37 34.438C35.6667 33.6341 35.8695 32.7154 35.9278 31.3702C35.9862 30.0222 36 29.5918 36 26.1595C36 22.7271 35.9862 22.2968 35.9278 20.9488C35.8695 19.6036 35.6667 18.6848 35.37 17.881C35.0634 17.0499 34.653 16.3451 33.9859 15.6424C33.3188 14.9398 32.6496 14.5077 31.8605 14.1847C31.0972 13.8723 30.2248 13.6586 28.9476 13.5973C27.6677 13.5358 27.259 13.5212 24 13.5212Z" fill="#2B4B96"/>
<path d="M24.0056 19.6755C20.6023 19.6755 17.8434 22.5811 17.8434 26.1654C17.8434 29.7498 20.6023 32.6554 24.0056 32.6554C27.4088 32.6554 30.1677 29.7498 30.1677 26.1654C30.1677 22.5811 27.4088 19.6755 24.0056 19.6755ZM24.0056 30.3782C21.7964 30.3782 20.0055 28.4921 20.0055 26.1654C20.0055 23.8388 21.7964 21.9527 24.0056 21.9527C26.2147 21.9527 28.0055 23.8388 28.0055 26.1654C28.0055 28.4921 26.2147 30.3782 24.0056 30.3782Z" fill="#2B4B96"/>
<path d="M31.8508 19.4151C31.8508 20.2526 31.206 20.9316 30.4107 20.9316C29.6155 20.9316 28.9708 20.2526 28.9708 19.4151C28.9708 18.5775 29.6155 17.8984 30.4107 17.8984C31.206 17.8984 31.8508 18.5775 31.8508 19.4151Z" fill="#2B4B96"/>
<rect x="1.5" y="2.38306" width="45" height="47.5532" stroke="#2B4B96" stroke-width="3"/>
</svg>
