<svg width="100" height="100" viewBox="0 0 100 100" fill="none" xmlns="http://www.w3.org/2000/svg">
<g clip-path="url(#clip0)">
<rect width="100" height="100" fill="#262262"/>
<path d="M57.7075 69.7919H41.0408C32.7604 69.8009 26.0505 76.5115 26.0408 84.792V98.1254C26.0408 99.0458 26.787 99.792 27.7074 99.792H71.0409C71.9613 99.792 72.7076 99.0458 72.7076 98.1254V84.792C72.6986 76.5115 65.988 69.8009 57.7075 69.7919ZM57.4016 81.1063L52.5163 80.2916L56.5877 75.4031L57.4016 81.1063ZM54.148 73.1253L49.3742 78.8536L44.6012 73.1253H54.148ZM42.1614 75.4047L46.2329 80.2916L41.3476 81.1046L42.1614 75.4047ZM29.3741 84.792C29.3847 79.1059 33.4895 74.254 39.0942 73.3019L37.7246 82.8885C37.6489 83.4142 37.8295 83.9448 38.2096 84.3159C38.5896 84.6878 39.1235 84.8555 39.6476 84.7684L47.7075 83.4248V96.4587H37.7075V84.792H34.3741V96.4587H29.3741V84.792ZM69.3742 96.4587H64.3742V84.792H61.0409V96.4587H51.0409V83.4248L59.1008 84.7684C59.6257 84.8555 60.1595 84.6878 60.5396 84.3159C60.9196 83.9448 61.0995 83.4142 61.0246 82.8885L59.6542 73.3019C65.2605 74.254 69.3645 79.1059 69.3742 84.792V96.4587Z" fill="white"/>
<path d="M61.0409 58.1252V53.1252C61.9613 53.1252 62.7076 52.379 62.7076 51.4585C62.7076 44.0944 56.7383 38.1252 49.3742 38.1252C42.0108 38.1252 36.0408 44.0944 36.0408 51.4585C36.0408 52.379 36.787 53.1252 37.7074 53.1252V58.1252C37.7074 64.5681 42.9313 69.792 49.3742 69.792C55.8179 69.792 61.0409 64.5681 61.0409 58.1252ZM49.3742 41.4585C54.1382 41.465 58.2389 44.8252 59.1813 49.4948C57.1346 48.7006 55.3662 47.3228 54.0942 45.5332C53.8175 45.1182 53.3691 44.8488 52.8727 44.8C52.8157 44.8 52.7612 44.8 52.7059 44.8C52.264 44.8 51.84 44.9758 51.5275 45.2883C49.7078 47.1014 43.9111 48.6582 39.5743 49.4582C40.5305 44.8049 44.624 41.4634 49.3742 41.4585ZM49.3742 66.4586C44.7745 66.4529 41.0465 62.7249 41.0408 58.1252L41.0294 52.5767C45.0089 51.9265 48.8574 50.6423 52.4292 48.7714C53.8729 50.4079 55.6812 51.6823 57.7075 52.4913V58.1252C57.7027 62.7249 53.9746 66.4529 49.3742 66.4586Z" fill="white"/>
<path d="M28.684 31.4585H27.7075C26.787 31.4585 26.0408 32.2039 26.0408 33.1251V53.1252H29.3741V34.7918H32.7075C33.3821 34.791 33.9892 34.3849 34.2472 33.7624C34.5052 33.1398 34.3628 32.4228 33.8859 31.9468L23.8858 21.9467C23.2356 21.2957 22.1801 21.2957 21.529 21.9467L11.529 31.9468C11.0529 32.4228 10.9105 33.1398 11.1685 33.7624C11.4265 34.3849 12.0336 34.791 12.7074 34.7918H16.0407V53.1252H19.3741V33.1251C19.3741 32.2039 18.6278 31.4585 17.7074 31.4585H16.7309L22.7074 25.4811L28.684 31.4585Z" fill="white"/>
<path d="M39.3741 13.125H42.7075V18.1251H46.0408V11.4584C46.0408 10.5371 45.2946 9.79169 44.3742 9.79169H43.3976L49.3742 3.81429L55.3508 9.79169H54.3742C53.4538 9.79169 52.7075 10.5371 52.7075 11.4584V21.4584H56.0409V13.125H59.3742C60.0489 13.1242 60.656 12.7181 60.9139 12.0956C61.1719 11.473 61.0295 10.7561 60.5526 10.28L50.5526 0.279939C49.9023 -0.371104 48.8468 -0.371104 48.1958 0.279939L38.1958 10.28C37.7197 10.7561 37.5773 11.473 37.8352 12.0956C38.0932 12.7181 38.7003 13.1242 39.3741 13.125Z" fill="white"/>
<path d="M88.8861 21.9467L78.8861 11.9467C78.2358 11.2956 77.1803 11.2956 76.5293 11.9467L66.5293 21.9467C66.0532 22.4228 65.9108 23.1397 66.1687 23.7623C66.4267 24.3849 67.0338 24.7909 67.7076 24.7918H71.041V43.1252H74.3743V23.1251C74.3743 22.2039 73.6281 21.4584 72.7077 21.4584H71.7311L77.7077 15.481L83.6843 21.4584H82.7077C81.7873 21.4584 81.041 22.2039 81.041 23.1251V43.1252H84.3744V24.7918H87.7077C88.3823 24.7909 88.9894 24.3849 89.2474 23.7623C89.5054 23.1397 89.363 22.4228 88.8861 21.9467Z" fill="white"/>
<path d="M42.7075 21.4584H46.0409V28.1251H42.7075V21.4584Z" fill="white"/>
<path d="M52.7075 24.7917H56.0409V28.1251H52.7075V24.7917Z" fill="white"/>
<path d="M52.7075 31.4584H56.0409V34.7918H52.7075V31.4584Z" fill="white"/>
<path d="M42.7075 31.4584H46.0409V34.7918H42.7075V31.4584Z" fill="white"/>
<path d="M71.0408 46.4585H74.3741V53.1252H71.0408V46.4585Z" fill="white"/>
<path d="M81.041 49.7918H84.3744V53.1252H81.041V49.7918Z" fill="white"/>
<path d="M16.0408 56.4585H19.3741V59.7919H16.0408V56.4585Z" fill="white"/>
<path d="M26.0408 56.4585H29.3741V63.1252H26.0408V56.4585Z" fill="white"/>
<path d="M26.0408 66.4586H29.3741V69.7919H26.0408V66.4586Z" fill="white"/>
<path d="M16.0408 63.1252H19.3741V66.4586H16.0408V63.1252Z" fill="white"/>
<path d="M81.041 56.4585H84.3744V59.7919H81.041V56.4585Z" fill="white"/>
<path d="M81.041 63.1252H84.3744V66.4586H81.041V63.1252Z" fill="white"/>
</g>
<defs>
<clipPath id="clip0">
<rect width="100" height="100" fill="white"/>
</clipPath>
</defs>
</svg>
