<svg width="100" height="100" viewBox="0 0 100 100" fill="none" xmlns="http://www.w3.org/2000/svg">
<g clip-path="url(#clip0)">
<rect width="100" height="100" fill="white"/>
<path d="M57.7078 69.7919H41.0411C32.7606 69.8009 26.0508 76.5115 26.041 84.792V98.1254C26.041 99.0458 26.7873 99.792 27.7077 99.792H71.0412C71.9616 99.792 72.7078 99.0458 72.7078 98.1254V84.792C72.6989 76.5115 65.9882 69.8009 57.7078 69.7919V69.7919ZM57.4018 81.1063L52.5165 80.2916L56.588 75.4031L57.4018 81.1063ZM54.1482 73.1253L49.3744 78.8536L44.6015 73.1253H54.1482ZM42.1617 75.4047L46.2331 80.2916L41.3479 81.1046L42.1617 75.4047ZM29.3744 84.792C29.3849 79.1059 33.4898 74.254 39.0944 73.3019L37.7248 82.8885C37.6491 83.4142 37.8298 83.9448 38.2098 84.3159C38.5899 84.6878 39.1237 84.8555 39.6478 84.7684L47.7078 83.4248V96.4587H37.7077V84.792H34.3744V96.4587H29.3744V84.792ZM69.3745 96.4587H64.3745V84.792H61.0411V96.4587H51.0411V83.4248L59.101 84.7684C59.6259 84.8555 60.1598 84.6878 60.5398 84.3159C60.9199 83.9448 61.0997 83.4142 61.0249 82.8885L59.6544 73.3019C65.2607 74.254 69.3647 79.1059 69.3745 84.792V96.4587Z" fill="#262262"/>
<path d="M61.0411 58.1252V53.1252C61.9615 53.1252 62.7078 52.379 62.7078 51.4585C62.7078 44.0944 56.7385 38.1252 49.3744 38.1252C42.0111 38.1252 36.041 44.0944 36.041 51.4585C36.041 52.379 36.7873 53.1252 37.7077 53.1252V58.1252C37.7077 64.5681 42.9315 69.7919 49.3744 69.7919C55.8181 69.7919 61.0411 64.5681 61.0411 58.1252ZM49.3744 41.4585C54.1384 41.465 58.2392 44.8252 59.1816 49.4948C57.1349 48.7006 55.3665 47.3228 54.0945 45.5332C53.8178 45.1182 53.3694 44.8488 52.873 44.8C52.816 44.8 52.7615 44.8 52.7061 44.8C52.2642 44.8 51.8402 44.9758 51.5277 45.2883C49.7081 47.1014 43.9113 48.6582 39.5746 49.4582C40.5308 44.8049 44.6242 41.4634 49.3744 41.4585ZM49.3744 66.4586C44.7748 66.4529 41.0467 62.7249 41.041 58.1252L41.0296 52.5767C45.0092 51.9265 48.8576 50.6423 52.4294 48.7714C53.8731 50.4079 55.6814 51.6823 57.7078 52.4913V58.1252C57.7029 62.7249 53.9748 66.4529 49.3744 66.4586Z" fill="#262262"/>
<path d="M28.6845 31.4585H27.7079C26.7875 31.4585 26.0413 32.2039 26.0413 33.1251V53.1252H29.3746V34.7918H32.708C33.3826 34.791 33.9897 34.3849 34.2477 33.7624C34.5057 33.1398 34.3632 32.4228 33.8864 31.9468L23.8863 21.9467C23.2361 21.2957 22.1806 21.2957 21.5295 21.9467L11.5295 31.9468C11.0534 32.4228 10.911 33.1398 11.169 33.7624C11.427 34.3849 12.0341 34.791 12.7079 34.7918H16.0412V53.1252H19.3746V33.1251C19.3746 32.2039 18.6283 31.4585 17.7079 31.4585H16.7313L22.7079 25.4811L28.6845 31.4585Z" fill="#262262"/>
<path d="M39.3739 13.125H42.7072V18.1251H46.0406V11.4584C46.0406 10.5371 45.2943 9.79169 44.3739 9.79169H43.3974L49.3739 3.81429L55.3505 9.79169H54.3739C53.4535 9.79169 52.7073 10.5371 52.7073 11.4584V21.4584H56.0406V13.125H59.374C60.0486 13.1242 60.6557 12.7181 60.9137 12.0956C61.1717 11.473 61.0292 10.7561 60.5524 10.28L50.5523 0.279939C49.9021 -0.371104 48.8466 -0.371104 48.1955 0.279939L38.1955 10.28C37.7194 10.7561 37.577 11.473 37.835 12.0956C38.093 12.7181 38.7001 13.1242 39.3739 13.125Z" fill="#262262"/>
<path d="M88.8863 21.9467L78.8863 11.9467C78.2361 11.2956 77.1806 11.2956 76.5295 11.9467L66.5295 21.9467C66.0534 22.4228 65.911 23.1397 66.169 23.7623C66.427 24.3849 67.0341 24.7909 67.7079 24.7918H71.0412V43.1252H74.3746V23.1251C74.3746 22.2039 73.6283 21.4584 72.7079 21.4584H71.7313L77.7079 15.481L83.6845 21.4584H82.7079C81.7875 21.4584 81.0413 22.2039 81.0413 23.1251V43.1252H84.3746V24.7918H87.7079C88.3826 24.7909 88.9897 24.3849 89.2477 23.7623C89.5056 23.1397 89.3632 22.4228 88.8863 21.9467Z" fill="#262262"/>
<path d="M42.708 21.4584H46.0414V28.1251H42.708V21.4584Z" fill="#262262"/>
<path d="M52.708 24.7917H56.0414V28.1251H52.708V24.7917Z" fill="#262262"/>
<path d="M52.708 31.4584H56.0414V34.7918H52.708V31.4584Z" fill="#262262"/>
<path d="M42.708 31.4584H46.0414V34.7918H42.708V31.4584Z" fill="#262262"/>
<path d="M71.041 46.4585H74.3744V53.1252H71.041V46.4585Z" fill="#262262"/>
<path d="M81.041 49.7918H84.3744V53.1252H81.041V49.7918Z" fill="#262262"/>
<path d="M16.041 56.4585H19.3744V59.7919H16.041V56.4585Z" fill="#262262"/>
<path d="M26.041 56.4585H29.3744V63.1252H26.041V56.4585Z" fill="#262262"/>
<path d="M26.041 66.4586H29.3744V69.7919H26.041V66.4586Z" fill="#262262"/>
<path d="M16.041 63.1252H19.3744V66.4586H16.041V63.1252Z" fill="#262262"/>
<path d="M81.041 56.4585H84.3744V59.7919H81.041V56.4585Z" fill="#262262"/>
<path d="M81.041 63.1252H84.3744V66.4586H81.041V63.1252Z" fill="#262262"/>
</g>
<defs>
<clipPath id="clip0">
<rect width="100" height="100" fill="white"/>
</clipPath>
</defs>
</svg>
