<svg width="57" height="50" viewBox="0 0 57 50" fill="none" xmlns="http://www.w3.org/2000/svg">
<path d="M44.1627 29.7765C44.9652 29.7765 45.7312 29.9057 46.4607 30.164C47.1902 30.4223 47.8468 30.8098 48.4304 31.3264L54.4489 36.6544C55.0142 37.1549 55.4428 37.7281 55.7346 38.3739C56.0264 39.0197 56.1815 39.7059 56.1997 40.4324C56.1997 41.1428 56.0538 41.8209 55.762 42.4668C55.4702 43.1126 55.0325 43.6938 54.4489 44.2105L54.0659 44.5495C53.081 45.4214 52.1783 46.1963 51.3576 46.8744C50.5369 47.5525 49.6797 48.1176 48.786 48.5697C47.8924 49.0218 46.8984 49.377 45.8041 49.6353C44.7099 49.8936 43.4059 50.0147 41.8921 49.9986C39.6124 49.9986 37.2688 49.6837 34.8614 49.0541C32.454 48.4244 30.0649 47.5525 27.6939 46.4385C25.323 45.3245 22.9886 44.0006 20.6906 42.4668C18.3926 40.9329 16.2315 39.2619 14.2071 37.4536C12.1827 35.6453 10.3042 33.724 8.57156 31.6897C6.83897 29.6554 5.3617 27.5888 4.13977 25.4899C2.91783 23.391 1.95122 21.284 1.23995 19.169C0.528672 17.0539 0.182153 15.0196 0.200391 13.066C0.200391 11.726 0.328056 10.5796 0.583386 9.62707C0.838716 8.6745 1.23083 7.80265 1.75973 7.01152C2.28862 6.2204 2.92695 5.46964 3.6747 4.75924C4.42245 4.04885 5.29787 3.24965 6.30095 2.36166L6.73866 1.97417C7.30403 1.47366 7.95148 1.08617 8.68099 0.811701C9.4105 0.53723 10.1856 0.399994 11.0063 0.399994C11.8088 0.399994 12.5748 0.53723 13.3043 0.811701C14.0338 1.08617 14.6904 1.47366 15.274 1.97417L21.2925 7.30214C21.8578 7.80265 22.2864 8.37581 22.5782 9.02162C22.87 9.66744 23.0251 10.3536 23.0433 11.0802C23.0433 11.7906 22.9065 12.4202 22.6329 12.9692C22.3594 13.5181 22.022 14.0267 21.6207 14.4949C21.2195 14.9631 20.7818 15.3748 20.3076 15.73C19.8334 16.0852 19.3866 16.4485 18.9671 16.8198C18.5477 17.1912 18.2103 17.5464 17.9549 17.8854C17.6996 18.2245 17.5628 18.62 17.5446 19.0721C17.5446 19.6856 17.7908 20.2104 18.2832 20.6463L33.3568 33.9904C33.8492 34.4264 34.442 34.6443 35.135 34.6443C35.6092 34.6443 36.0469 34.5232 36.4481 34.2811C36.8493 34.0389 37.2597 33.7402 37.6792 33.385C38.0986 33.0298 38.509 32.6423 38.9102 32.2225C39.3115 31.8027 39.7765 31.4072 40.3054 31.0358C40.8343 30.6645 41.3997 30.3658 42.0015 30.1398C42.6034 29.9137 43.3238 29.7926 44.1627 29.7765ZM41.8921 46.8987C43.2052 46.8987 44.2995 46.7937 45.1749 46.5838C46.0503 46.3739 46.8528 46.0591 47.5823 45.6393C48.3118 45.2195 49.0049 44.7029 49.6614 44.0894C50.318 43.4758 51.0931 42.7816 51.9868 42.0066C52.4792 41.5707 52.7254 41.046 52.7254 40.4324C52.7254 40.1418 52.5977 39.8028 52.3424 39.4153C52.0871 39.0278 51.7405 38.608 51.3028 38.1559C50.8651 37.7039 50.4001 37.2599 49.9076 36.8239C49.4152 36.388 48.9046 35.9521 48.3757 35.5162C47.8468 35.0802 47.3817 34.7008 46.9805 34.3779C46.5792 34.055 46.2418 33.7725 45.9683 33.5303C45.4759 33.0944 44.874 32.8764 44.1627 32.8764C43.6885 32.8764 43.2508 32.9975 42.8496 33.2397C42.4484 33.4819 42.0471 33.7805 41.6459 34.1357C41.2447 34.4909 40.8343 34.8784 40.4148 35.2982C39.9954 35.718 39.5212 36.1135 38.9923 36.4849C38.4634 36.8562 37.898 37.1549 37.2962 37.381C36.6943 37.607 35.9739 37.7281 35.135 37.7442C34.3325 37.7442 33.5665 37.6151 32.837 37.3567C32.1075 37.0984 31.4509 36.7109 30.8673 36.1943L15.7938 22.8501C15.2284 22.3496 14.7998 21.7765 14.508 21.1306C14.2162 20.4848 14.0612 19.7987 14.0429 19.0721C14.0429 18.3617 14.1797 17.732 14.4533 17.1831C14.7268 16.6342 15.0642 16.1256 15.4655 15.6574C15.8667 15.1892 16.3044 14.7774 16.7786 14.4222C17.2528 14.067 17.6996 13.6957 18.1191 13.3082C18.5385 12.9207 18.8759 12.5655 19.1313 12.2426C19.3866 11.9197 19.5234 11.5322 19.5416 11.0802C19.5416 10.4505 19.2954 9.91769 18.803 9.48176C18.5659 9.27187 18.2559 8.98126 17.8729 8.60991C17.4899 8.23857 17.0613 7.82686 16.5871 7.37479C16.1129 6.92272 15.6205 6.47065 15.1098 6.01858C14.5992 5.56651 14.0885 5.14673 13.5779 4.75924C13.0672 4.37176 12.6021 4.07307 12.1827 3.86318C11.7632 3.65329 11.3711 3.5322 11.0063 3.4999C10.3133 3.4999 9.72055 3.71787 9.22813 4.15379L6.9028 6.21233C6.228 6.80971 5.64439 7.42323 5.15197 8.0529C4.65954 8.68257 4.29479 9.38489 4.0577 10.1599C3.8206 10.9348 3.69294 11.9036 3.6747 13.066C3.6747 14.8743 4.00298 16.7391 4.65954 18.6604C5.31611 20.5817 6.23712 22.503 7.42258 24.4243C8.60804 26.3456 10.0032 28.2346 11.6082 30.0913C13.2131 31.948 14.9639 33.716 16.8607 35.3951C18.7574 37.0742 20.7544 38.608 22.8518 39.9965C24.9492 41.385 27.083 42.5959 29.2533 43.6292C31.4236 44.6625 33.5757 45.4617 35.7095 46.0268C37.8433 46.5919 39.9042 46.8825 41.8921 46.8987Z" fill="#262262"/>
</svg>
