<svg width="10" height="10" viewBox="0 0 10 10" fill="none" xmlns="http://www.w3.org/2000/svg">
<path d="M5 0C2.24288 0 0 2.24288 0 5C0 5.94058 0.261346 6.85365 0.757115 7.64654C0.559615 8.33846 0.202885 9.64731 0.199038 9.66096C0.180577 9.72865 0.200385 9.80096 0.250962 9.84962C0.301538 9.89827 0.374615 9.91558 0.441154 9.89519L2.42308 9.28558C3.19942 9.75327 4.08846 10 5 10C7.75712 10 10 7.75712 10 5C10 2.24288 7.75712 0 5 0ZM5 9.61538C4.13096 9.61538 3.28442 9.3725 2.55173 8.91327C2.52077 8.89385 2.48519 8.88404 2.44962 8.88404C2.43058 8.88404 2.41154 8.88692 2.39308 8.8925L0.6625 9.42519C0.789615 8.96115 1.01808 8.13115 1.15058 7.66942C1.16596 7.61596 1.15731 7.55827 1.12712 7.51154C0.641346 6.76404 0.384615 5.89558 0.384615 5C0.384615 2.45519 2.45519 0.384615 5 0.384615C7.54481 0.384615 9.61538 2.45519 9.61538 5C9.61538 7.54481 7.54481 9.61538 5 9.61538Z" fill="#6A6565"/>
<path d="M8.26621 6.17807C7.91121 5.98095 7.6089 5.78326 7.38832 5.63903C7.21986 5.52903 7.09813 5.44961 7.0089 5.4048C6.75948 5.28037 6.57044 5.36826 6.49852 5.44095C6.48948 5.44999 6.4814 5.4598 6.47448 5.47018C6.21544 5.85884 5.87717 6.23057 5.77813 6.25057C5.66371 6.23268 5.12813 5.92826 4.59582 5.48499C4.05236 5.03211 3.71044 4.59845 3.66025 4.30307C4.0089 3.94422 4.13448 3.71845 4.13448 3.46153C4.13448 3.19672 3.51679 2.09114 3.40505 1.97941C3.29294 1.86749 3.04044 1.84999 2.65448 1.92691C2.61736 1.93441 2.58313 1.95268 2.55621 1.97941C2.50948 2.02614 1.41602 3.14095 1.93563 4.49211C2.50602 5.97499 3.97005 7.69864 5.83659 7.97864C6.04871 8.01037 6.24755 8.02614 6.43371 8.02614C7.53179 8.02614 8.17986 7.47364 8.36236 6.37768C8.37602 6.29749 8.33736 6.21749 8.26621 6.17807ZM5.89371 7.59826C3.91986 7.3023 2.67659 5.34672 2.29467 4.35403C1.91582 3.36941 2.61448 2.49153 2.78986 2.29307C2.93255 2.26884 3.08275 2.25864 3.14544 2.26845C3.2764 2.45057 3.72986 3.3073 3.74986 3.46153C3.74986 3.56249 3.71698 3.70307 3.32544 4.0948C3.28929 4.13076 3.26909 4.17961 3.26909 4.23076C3.26909 5.23768 5.39294 6.63461 5.76909 6.63461C6.09621 6.63461 6.52275 6.0848 6.76563 5.72653C6.77967 5.72711 6.80332 5.73191 6.83698 5.74884C6.90621 5.78364 7.02621 5.86191 7.17794 5.96114C7.37832 6.09211 7.64448 6.26595 7.95871 6.44614C7.81602 7.13268 7.41717 7.82711 5.89371 7.59826Z" fill="#6A6565"/>
</svg>
